<?xml version="1.0" standalone="no"?>
<!DOCTYPE svg PUBLIC "-//W3C//DTD SVG 20010904//EN"
 "http://www.w3.org/TR/2001/REC-SVG-20010904/DTD/svg10.dtd">
<svg version="1.0" xmlns="http://www.w3.org/2000/svg"
 width="400.000000pt" height="344.000000pt" viewBox="0 0 400.000000 344.000000"
 preserveAspectRatio="xMidYMid meet">

<g transform="translate(0.000000,344.000000) scale(0.100000,-0.100000)"
fill="#000000" stroke="none">
<path d="M3061 3173 c-28 -31 -57 -71 -66 -89 -17 -36 -20 -104 -5 -104 6 0
10 10 10 23 0 27 56 123 100 173 16 19 30 39 30 44 0 22 -21 7 -69 -47z"/>
<path d="M3443 3140 c-158 -57 -269 -141 -325 -247 -19 -36 -27 -43 -43 -37
-11 3 -56 8 -100 11 -98 5 -118 -5 -107 -57 8 -34 10 -36 126 -76 127 -45 157
-64 138 -87 -9 -10 -9 -27 -2 -63 26 -118 24 -136 -13 -217 -33 -71 -38 -76
-77 -87 -46 -12 -109 -7 -204 17 -97 24 -187 77 -289 171 -62 57 -156 100
-235 108 -59 7 -74 15 -52 29 14 9 12 93 -4 138 -20 55 -43 77 -83 77 -23 0
-33 5 -33 16 0 24 -79 152 -109 175 -22 18 -37 20 -96 17 -87 -5 -139 -29
-173 -81 -25 -38 -27 -48 -27 -147 l0 -107 -30 7 c-28 5 -30 9 -31 56 -2 77
-34 124 -86 124 -26 0 -44 -14 -104 -75 -110 -113 -128 -101 -118 78 9 148 4
167 -41 167 -24 0 -45 -9 -71 -32 -83 -73 -120 -179 -109 -308 l7 -78 -59 -22
c-97 -36 -276 -138 -362 -207 -86 -68 -241 -234 -241 -256 0 -8 11 -20 25 -27
14 -7 25 -17 25 -22 0 -32 -61 -111 -174 -228 -140 -144 -168 -182 -148 -202
9 -9 15 -9 24 0 7 7 21 12 32 12 11 0 43 14 73 30 29 17 55 30 58 30 3 0 -8
-24 -25 -53 -16 -30 -30 -62 -30 -73 0 -24 18 -44 40 -44 20 0 123 66 165 106
17 16 53 50 81 76 l51 48 -1 -59 c-1 -64 14 -90 66 -117 16 -8 28 -20 28 -26
0 -6 11 -26 25 -44 l26 -34 87 44 c48 24 143 67 212 96 156 66 300 139 307
156 7 19 -61 169 -116 254 -43 66 -50 85 -61 159 -6 46 -8 87 -3 91 22 22 273
108 273 95 0 -2 -9 -27 -20 -54 -34 -87 -68 -242 -73 -338 -7 -111 -4 -124 34
-145 26 -15 29 -22 29 -65 0 -59 22 -149 51 -205 22 -43 117 -143 182 -191 65
-49 94 -138 66 -200 -13 -28 -75 -66 -126 -77 -47 -11 -187 11 -261 41 -30 12
-34 12 -43 -4 -13 -22 -23 -22 -94 8 -33 13 -70 25 -82 25 -12 0 -35 11 -51
25 -52 44 -72 35 -151 -65 -67 -85 -120 -131 -326 -288 -105 -80 -123 -186
-45 -264 36 -36 72 -49 84 -29 3 5 24 2 47 -6 61 -20 100 -9 263 74 61 31 70
33 78 19 15 -27 30 -19 23 13 -7 33 8 49 30 31 20 -17 38 -3 25 20 -15 27 -13
30 18 30 36 0 55 20 80 84 l19 50 8 -60 c9 -76 25 -112 69 -162 41 -45 145
-89 226 -96 l45 -4 3 -68 c2 -52 10 -85 33 -134 37 -81 70 -116 134 -146 116
-55 420 -12 560 80 27 18 32 45 13 64 -20 20 -31 14 -24 -13 6 -23 2 -28 -41
-46 -90 -39 -201 -59 -323 -59 -145 0 -177 9 -228 64 -62 67 -75 100 -76 191
-1 74 1 80 19 80 18 0 20 -7 22 -67 3 -111 33 -152 153 -214 46 -23 68 -28
135 -28 103 -1 269 37 301 69 47 47 40 160 -14 217 -37 40 -83 52 -169 44 -68
-5 -73 -4 -73 14 0 13 9 22 25 26 13 3 29 12 36 20 9 11 14 11 28 -5 14 -17
23 -18 77 -11 75 11 230 67 344 123 61 30 103 60 150 107 60 60 67 72 90 150
22 75 25 103 24 235 0 127 -4 159 -22 209 -70 193 -260 386 -430 437 -34 10
-48 21 -66 53 -25 43 -52 143 -43 153 4 3 19 -5 34 -18 16 -13 49 -33 73 -44
25 -11 54 -28 64 -37 11 -10 35 -23 55 -29 20 -6 40 -15 46 -20 5 -5 16 -9 25
-9 9 0 34 -8 56 -19 84 -40 401 -71 438 -43 6 5 31 14 55 21 139 40 275 167
347 324 35 77 52 154 59 268 3 52 8 104 11 115 2 15 -2 23 -14 26 -19 5 -47
81 -37 98 3 6 32 10 63 10 59 0 160 20 205 41 29 13 42 39 32 68 -6 20 -90 61
-124 61 -27 0 -26 6 4 42 47 56 25 78 -82 78 l-68 1 28 17 c22 13 27 23 25 47
-3 27 -7 30 -38 32 -19 1 -58 -6 -87 -17z m47 -44 c0 -3 -24 -18 -54 -35 -66
-38 -84 -57 -68 -73 8 -8 32 -6 90 10 82 23 192 30 192 12 0 -13 -29 -27 -107
-51 -88 -27 -123 -46 -123 -65 0 -13 8 -14 48 -8 87 13 225 9 256 -8 27 -14
28 -16 9 -22 -11 -3 -80 -12 -154 -20 -130 -13 -173 -25 -184 -55 -3 -7 6 -38
20 -68 37 -82 35 -93 -21 -93 -25 0 -78 10 -117 21 -60 18 -79 29 -113 68 -23
25 -61 55 -85 67 -24 11 -55 26 -69 33 -21 10 -14 11 44 7 67 -5 68 -5 62 17
-10 40 101 140 221 201 29 14 58 26 65 26 7 0 24 9 38 20 23 18 50 26 50 16z
m-2147 -198 c-5 -101 -3 -130 11 -162 9 -22 15 -40 14 -41 -11 -8 -183 -44
-187 -39 -3 3 -6 45 -5 92 0 123 38 203 119 253 54 34 55 31 48 -103z m683 50
c35 -38 88 -127 80 -135 -2 -3 -19 5 -36 17 -21 15 -39 20 -55 16 -18 -5 -25
-2 -25 9 0 19 -14 19 -30 0 -7 -8 -22 -15 -35 -15 -12 0 -30 -9 -40 -20 -10
-11 -24 -20 -32 -20 -13 0 -21 -16 -48 -89 -12 -33 -13 -34 -24 -12 -7 12 -13
62 -13 111 -2 76 1 94 18 117 26 34 74 51 150 52 55 1 62 -2 90 -31z m-392
-130 c18 -25 21 -84 6 -93 -16 -10 -170 -11 -170 -2 0 4 24 32 53 62 58 60 87
68 111 33z m583 -83 c26 -46 31 -116 8 -135 -25 -21 -39 -6 -42 46 -5 82 -7
91 -28 114 l-20 22 30 -4 c22 -2 35 -13 52 -43z m-125 -33 c18 6 46 -51 54
-109 5 -44 3 -53 -19 -79 -24 -27 -29 -29 -101 -28 -57 0 -80 4 -95 18 -16 14
-33 63 -35 100 -1 9 83 61 117 72 9 4 20 17 23 31 6 22 8 23 25 7 10 -9 24
-14 31 -12z m-473 -64 c0 -13 -6 -57 -13 -98 -13 -82 -29 -100 -92 -100 -45 0
-175 -35 -224 -60 -23 -12 -44 -19 -47 -16 -3 2 -16 51 -29 107 -27 112 -24
123 29 133 18 3 86 16 152 30 66 13 144 25 173 25 48 1 52 -1 51 -21z m107 9
c2 -2 -4 -22 -12 -46 -24 -71 12 -141 82 -160 28 -8 29 -10 26 -61 -5 -65 -12
-87 -47 -128 -60 -72 -136 -12 -152 118 -5 46 -4 50 18 59 l24 10 -23 7 c-18
5 -22 12 -18 33 3 14 10 55 16 91 16 93 16 93 52 86 17 -3 33 -7 34 -9z m106
-24 c26 -30 48 -81 48 -110 0 -26 -2 -24 -20 15 -11 24 -29 55 -40 69 -31 40
-21 63 12 26z m-27 -41 c14 -21 29 -52 34 -69 8 -28 7 -31 -17 -36 -19 -4 -33
2 -54 23 -30 30 -34 53 -18 94 13 35 25 33 55 -12z m1474 3 c69 -25 119 -29
171 -14 12 3 15 -7 12 -56 -12 -258 -201 -498 -430 -546 -33 -6 -102 -9 -167
-7 -133 6 -245 40 -401 122 -99 53 -204 122 -204 134 0 4 12 42 27 84 27 81
25 110 -6 69 -58 -77 -72 -239 -31 -360 21 -62 21 -65 3 -82 -10 -9 -54 -27
-98 -39 -131 -36 -281 -29 -597 27 -15 3 -39 16 -52 28 -23 21 -25 29 -20 77
11 109 82 338 104 338 4 0 12 -19 19 -42 30 -102 98 -161 153 -132 46 24 80
95 86 180 3 52 9 74 18 74 7 0 17 7 22 15 7 14 12 14 45 0 72 -30 162 -13 220
42 15 15 27 33 27 40 0 22 82 15 141 -11 30 -13 118 -67 196 -120 197 -134
252 -157 421 -176 108 -12 139 -3 189 53 69 79 99 232 59 306 -21 39 -29 40
93 -4z m-2092 -120 c12 -55 23 -107 23 -115 0 -8 -20 -28 -45 -43 -25 -16 -66
-53 -93 -83 l-47 -55 -83 43 c-97 49 -162 58 -259 35 -35 -8 -63 -12 -63 -8 0
3 21 24 47 46 26 22 68 59 93 83 26 23 50 42 54 42 5 0 22 10 39 23 66 46 267
137 297 134 10 -2 22 -33 37 -102z m37 -197 c21 -99 21 -97 -31 -120 -26 -11
-72 -36 -101 -56 l-53 -35 -29 34 c-16 19 -29 37 -30 42 0 11 15 8 29 -5 10
-11 19 -4 49 31 35 42 139 131 154 131 4 0 10 -10 12 -22z m-339 -96 c56 -18
60 -20 58 -48 -2 -20 6 -38 28 -60 l30 -31 -84 -62 c-87 -64 -103 -85 -113
-152 -6 -38 -4 -42 44 -87 27 -26 55 -57 61 -69 10 -20 9 -23 -10 -23 -39 0
-126 31 -145 51 -20 23 -24 74 -11 152 7 39 6 48 -8 53 -11 5 -31 -11 -68 -52
-74 -85 -136 -144 -201 -188 -102 -70 -88 -22 30 103 46 50 84 98 84 106 0 23
-34 18 -59 -9 -27 -29 -206 -119 -224 -113 -8 3 -6 7 6 12 34 14 222 214 250
266 15 28 27 66 27 85 0 38 15 49 89 68 72 19 150 18 216 -2z m363 -90 c2 -23
7 -42 13 -42 5 0 9 6 9 13 1 21 36 -33 81 -125 37 -75 41 -90 29 -98 -24 -15
-26 -14 -67 58 -101 171 -126 224 -112 233 28 18 44 5 47 -39z m-50 -89 c23
-43 56 -102 73 -131 17 -29 29 -58 27 -63 -4 -13 -296 -151 -322 -153 -14 -1
-22 8 -28 33 -5 18 -32 60 -59 93 -31 38 -49 68 -47 81 2 13 34 39 92 74 49
30 115 74 145 98 31 24 61 44 67 45 5 0 29 -35 52 -77z m1353 -250 c13 -16 12
-17 -3 -4 -10 7 -18 15 -18 17 0 8 8 3 21 -13z m-1691 -153 c0 -5 -5 -10 -11
-10 -5 0 -7 5 -4 10 3 6 8 10 11 10 2 0 4 -4 4 -10z m1458 -114 c29 -15 58
-51 87 -106 63 -120 47 -186 -62 -261 -53 -37 -67 -37 -60 -1 4 15 11 69 18
120 11 90 8 132 -18 240 -6 26 -1 27 35 8z m-81 -138 c-3 -7 -5 -2 -5 12 0 14
2 19 5 13 2 -7 2 -19 0 -25z m-1157 -181 c-25 -66 -77 -118 -265 -263 -69 -52
-132 -109 -140 -124 -20 -38 -19 -110 1 -138 17 -25 15 -27 -21 -10 -26 12
-55 54 -55 81 0 7 11 36 25 63 21 43 42 63 137 130 122 86 245 201 296 278 18
26 35 46 38 43 3 -2 -5 -29 -16 -60z m161 -3 c4 -2 -4 -25 -17 -51 -34 -66
-32 -110 7 -143 l31 -26 -26 -38 c-14 -21 -26 -42 -26 -47 0 -9 -69 -44 -73
-38 -1 2 -11 22 -20 43 -25 54 -44 35 -28 -28 13 -55 13 -56 1 -56 -5 0 -16
16 -24 35 -22 52 -38 43 -18 -10 10 -28 13 -48 7 -54 -22 -19 -151 -84 -195
-97 -63 -19 -95 -15 -132 16 -27 22 -30 31 -24 55 10 39 93 120 211 205 88 64
163 141 192 196 l28 55 50 -7 c28 -3 53 -8 56 -10z m73 -33 c3 -5 -3 -41 -13
-81 l-18 -72 -22 28 c-12 15 -19 34 -16 42 3 7 5 19 5 26 0 16 38 66 50 66 5
0 11 -4 14 -9z m794 -386 c9 -20 9 -25 -2 -25 -8 0 -22 -3 -30 -6 -12 -5 -15
-2 -11 10 3 9 7 23 10 31 7 22 20 18 33 -10z m-98 -45 c0 -5 -13 -22 -30 -37
-38 -33 -38 -44 -1 -37 44 9 51 -23 11 -54 -28 -22 -41 -52 -22 -52 5 0 36 11
70 25 96 39 216 33 241 -12 5 -10 11 -45 12 -78 l3 -60 -35 -3 c-18 -1 -77
-12 -129 -25 -114 -26 -137 -24 -215 14 -103 51 -132 89 -142 183 l-5 52 53
13 c30 7 83 27 119 46 76 40 70 38 70 25z"/>
<path d="M2107 2648 c5 -23 5 -23 -10 -3 -14 17 -16 17 -17 4 0 -20 25 -43 38
-35 11 6 3 56 -8 56 -5 0 -6 -10 -3 -22z"/>
<path d="M2000 2621 c0 -20 -2 -22 -15 -11 -21 18 -29 6 -13 -19 18 -29 48
-28 48 2 0 12 -5 29 -10 37 -8 12 -10 10 -10 -9z"/>
<path d="M2063 2617 c9 -14 14 -33 11 -41 -7 -18 4 -20 26 -6 13 8 12 13 -6
36 -28 38 -55 47 -31 11z"/>
<path d="M2041 2541 c-11 -7 -9 -11 8 -21 23 -12 51 0 51 21 0 12 -41 11 -59
0z"/>
<path d="M1040 1949 c-37 -15 -68 -48 -80 -85 -24 -71 46 -150 123 -140 76 9
141 89 118 147 -23 61 -106 101 -161 78z m82 -36 c16 -10 38 -33 49 -50 18
-29 19 -36 7 -60 -7 -16 -30 -36 -50 -46 -32 -16 -43 -17 -73 -7 -87 29 -102
146 -21 169 46 13 55 13 88 -6z"/>
<path d="M1058 1896 c-22 -16 -23 -26 -4 -26 8 0 16 -6 19 -12 6 -18 16 -6 19
22 4 27 -11 34 -34 16z"/>
<path d="M1010 1840 c0 -20 6 -33 18 -37 9 -3 24 -14 32 -24 16 -19 70 -16 70
3 0 6 -11 7 -25 4 -18 -5 -27 -1 -35 14 -6 11 -17 20 -25 20 -18 0 -20 17 -3
22 15 5 1 28 -18 28 -9 0 -14 -11 -14 -30z"/>
<path d="M1116 1845 c-6 -18 2 -45 15 -45 5 0 9 6 9 14 0 8 8 17 18 19 16 4
16 5 0 6 -10 0 -18 6 -18 11 0 15 -17 12 -24 -5z"/>
<path d="M2885 3089 c-4 -18 -3 -35 4 -42 8 -8 11 -4 11 15 0 15 3 33 6 42 3
9 2 16 -4 16 -6 0 -13 -14 -17 -31z"/>
<path d="M733 2770 c-27 -11 -31 -34 -5 -26 9 2 32 7 49 11 18 4 35 11 38 16
8 11 -53 11 -82 -1z"/>
<path d="M845 2691 c-87 -25 -149 -55 -219 -105 -79 -56 -152 -134 -138 -148
7 -7 24 3 51 30 65 63 165 123 289 172 154 61 165 94 17 51z"/>
<path d="M3114 1635 c9 -13 16 -33 16 -44 0 -11 5 -23 10 -26 13 -8 13 36 0
69 -5 14 -17 26 -26 26 -15 0 -15 -2 0 -25z"/>
<path d="M2960 1637 c0 -8 10 -22 21 -33 12 -10 32 -41 45 -69 20 -41 24 -66
24 -142 0 -54 4 -93 10 -93 29 0 33 158 6 237 -9 29 -30 66 -46 83 -29 31 -60
40 -60 17z"/>
<path d="M514 1185 c-17 -14 -13 -15 51 -9 90 8 109 24 29 24 -39 0 -67 -5
-80 -15z"/>
<path d="M643 1116 c-58 -19 -104 -49 -152 -101 -46 -50 -99 -150 -87 -162 5
-4 11 -2 13 5 9 25 100 132 139 164 22 17 67 44 102 59 90 42 81 64 -15 35z"/>
</g>
</svg>
