<!-- <?xml version="1.0" standalone="yes"?> -->
<svg xmlns="http://www.w3.org/2000/svg" width="244" height="228">
<path style="fill:#ffffff; stroke:none;" d="M0 0L0 228L244 228L244 0L0 0z"/>
<path style="fill:#d5f0e4; stroke:none;" d="M114.667 19.3333L115.333 19.6667L114.667 19.3333z"/>
<path style="fill:#abdfca; stroke:none;" d="M116 19L116 20L119 20L116 19z"/>
<path style="fill:#95d7bd; stroke:none;" d="M119 19L119 20L125 20L119 19z"/>
<path style="fill:#73c9a5; stroke:none;" d="M125 19.439C101.435 21.9558 80.5001 27.4433 62 43.3002C9.52086 88.2813 19.4813 174.245 80 207.1C97.9382 216.838 118.947 219.803 139 217.83C188.708 212.94 225.441 168.704 226.741 120C228.132 67.8495 179.547 13.6133 125 19.439z"/>
<path style="fill:#95d7bd; stroke:none;" d="M130 19L130 20L134 20L130 19z"/>
<path style="fill:#abdfca; stroke:none;" d="M134 19L134 20L138 20L134 19z"/>
<path style="fill:#d5f0e4; stroke:none;" d="M138 19L139 20L138 19M108.667 20.3333L109.333 20.6667L108.667 20.3333z"/>
<path style="fill:#abdfca; stroke:none;" d="M110 20L111 21L110 20z"/>
<path style="fill:#95d7bd; stroke:none;" d="M111.667 20.3333L112.333 20.6667L111.667 20.3333M141 20L142 21L141 20z"/>
<path style="fill:#abdfca; stroke:none;" d="M142 20L142 21L145 21L142 20z"/>
<path style="fill:#d5f0e4; stroke:none;" d="M145 20L146 21L145 20M103.667 21.3333L104.333 21.6667L103.667 21.3333z"/>
<path style="fill:#95d7bd; stroke:none;" d="M105.667 21.3333L106.333 21.6667L105.667 21.3333z"/>
<path style="fill:#abdfca; stroke:none;" d="M148.667 21.3333L149.333 21.6667L148.667 21.3333z"/>
<path style="fill:#d5f0e4; stroke:none;" d="M100 22L101 23L100 22z"/>
<path style="fill:#95d7bd; stroke:none;" d="M101.667 22.3333L102.333 22.6667L101.667 22.3333M151 22L152 23L151 22z"/>
<path style="fill:#abdfca; stroke:none;" d="M152.667 22.3333L153.333 22.6667L152.667 22.3333z"/>
<path style="fill:#d5f0e4; stroke:none;" d="M96 23L97 24L96 23z"/>
<path style="fill:#95d7bd; stroke:none;" d="M97.6667 23.3333L98.3333 23.6667L97.6667 23.3333M155 23L156 24L155 23z"/>
<path style="fill:#abdfca; stroke:none;" d="M156 23L157 24L156 23z"/>
<path style="fill:#d5f0e4; stroke:none;" d="M157 23L158 24L157 23M93 24L94 25L93 24z"/>
<path style="fill:#abdfca; stroke:none;" d="M94 24L95 25L94 24z"/>
<path style="fill:#95d7bd; stroke:none;" d="M95 24L96 25L95 24M158 24L159 25L158 24z"/>
<path style="fill:#abdfca; stroke:none;" d="M159 24L160 25L159 24z"/>
<path style="fill:#d5f0e4; stroke:none;" d="M91 25L92 26L91 25z"/>
<path style="fill:#95d7bd; stroke:none;" d="M92 25L93 26L92 25z"/>
<path style="fill:#abdfca; stroke:none;" d="M161.667 25.3333L162.333 25.6667L161.667 25.3333z"/>
<path style="fill:#d5f0e4; stroke:none;" d="M88 26L89 27L88 26z"/>
<path style="fill:#95d7bd; stroke:none;" d="M89 26L90 27L89 26z"/>
<path style="fill:#abdfca; stroke:none;" d="M164.667 26.3333L165.333 26.6667L164.667 26.3333z"/>
<path style="fill:#d5f0e4; stroke:none;" d="M86 27L87 28L86 27z"/>
<path style="fill:#95d7bd; stroke:none;" d="M87 27L88 28L87 27M166 27L167 28L166 27z"/>
<path style="fill:#abdfca; stroke:none;" d="M167 27L168 28L167 27z"/>
<path style="fill:#d5f0e4; stroke:none;" d="M84 28L85 29L84 28z"/>
<path style="fill:#95d7bd; stroke:none;" d="M85 28L86 29L85 28M119 28L119 29L124 29L119 28z"/>
<path style="fill:#abdfca; stroke:none;" d="M124 28L124 29L130 29L124 28z"/>
<path style="fill:#95d7bd; stroke:none;" d="M130 28L130 29L135 29L130 28z"/>
<path style="fill:#abdfca; stroke:none;" d="M169 28L170 29L169 28z"/>
<path style="fill:#d5f0e4; stroke:none;" d="M82 29L83 30L82 29z"/>
<path style="fill:#95d7bd; stroke:none;" d="M83 29L84 30L83 29M112.667 29.3333L113.333 29.6667L112.667 29.3333z"/>
<path style="fill:#abdfca; stroke:none;" d="M114 29L115 30L114 29z"/>
<path style="fill:#d5f0e4; stroke:none;" d="M115.667 29.3333L116.333 29.6667L115.667 29.3333z"/>
<path style="fill:#ffffff; stroke:none;" d="M37 119C44.9754 113.263 48.0345 102.957 56.0039 97.3611C60.811 93.9853 66.619 98.197 71.9853 94.8519C82.1178 88.5357 86.1814 75.4261 96.0008 68.6528C101.804 64.6497 108.819 67.2135 114.985 64.3472C121.42 61.3553 122.458 49.2332 131 50.4529C144.214 52.3398 147.296 72.3891 154.637 80.7716C159.889 86.7688 170.33 82.7796 176.985 87.6381C182.974 92.0097 186.096 99.3238 190.669 104.985C197.001 112.825 207.786 121.894 217 126C217 99.453 210.259 74.4378 190.91 55.0895C135.105 -0.716476 37 40.6004 37 119z"/>
<path style="fill:#d5f0e4; stroke:none;" d="M137.667 29.3333L138.333 29.6667L137.667 29.3333z"/>
<path style="fill:#abdfca; stroke:none;" d="M139.667 29.3333L140.333 29.6667L139.667 29.3333z"/>
<path style="fill:#95d7bd; stroke:none;" d="M141 29L142 30L141 29z"/>
<path style="fill:#abdfca; stroke:none;" d="M171 29L172 30L171 29M80 30L81 31L80 30z"/>
<path style="fill:#95d7bd; stroke:none;" d="M106.667 30.3333L107.333 30.6667L106.667 30.3333z"/>
<path style="fill:#d5f0e4; stroke:none;" d="M108.667 30.3333L109.333 30.6667L108.667 30.3333M144 30L145 31L144 30z"/>
<path style="fill:#abdfca; stroke:none;" d="M145.667 30.3333L146.333 30.6667L145.667 30.3333M173 30L174 31L173 30M78 31L79 32L78 31z"/>
<path style="fill:#95d7bd; stroke:none;" d="M103 31L104 32L103 31z"/>
<path style="fill:#d5f0e4; stroke:none;" d="M104.667 31.3333L105.333 31.6667L104.667 31.3333M148 31L149 32L148 31z"/>
<path style="fill:#abdfca; stroke:none;" d="M149.667 31.3333L150.333 31.6667L149.667 31.3333M175 31L176 32L175 31z"/>
<path style="fill:#d5f0e4; stroke:none;" d="M76 32L77 33L76 32z"/>
<path style="fill:#95d7bd; stroke:none;" d="M77 32L78 33L77 32M99 32L100 33L99 32z"/>
<path style="fill:#d5f0e4; stroke:none;" d="M100.667 32.3333L101.333 32.6667L100.667 32.3333M152 32L153 33L152 32z"/>
<path style="fill:#abdfca; stroke:none;" d="M153 32L154 33L153 32z"/>
<path style="fill:#95d7bd; stroke:none;" d="M154 32L155 33L154 32z"/>
<path style="fill:#abdfca; stroke:none;" d="M176 32L177 33L176 32M75 33L76 34L75 33z"/>
<path style="fill:#95d7bd; stroke:none;" d="M96 33L97 34L96 33z"/>
<path style="fill:#abdfca; stroke:none;" d="M97 33L98 34L97 33z"/>
<path style="fill:#d5f0e4; stroke:none;" d="M98 33L99 34L98 33M155 33L156 34L155 33z"/>
<path style="fill:#abdfca; stroke:none;" d="M156 33L157 34L156 33M178 33L179 34L178 33z"/>
<path style="fill:#d5f0e4; stroke:none;" d="M73 34L74 35L73 34z"/>
<path style="fill:#95d7bd; stroke:none;" d="M94 34L95 35L94 34z"/>
<path style="fill:#d5f0e4; stroke:none;" d="M95 34L96 35L95 34z"/>
<path style="fill:#abdfca; stroke:none;" d="M158.667 34.3333L159.333 34.6667L158.667 34.3333M180 34L181 35L180 34z"/>
<path style="fill:#d5f0e4; stroke:none;" d="M71 35L72 36L71 35z"/>
<path style="fill:#95d7bd; stroke:none;" d="M72 35L73 36L72 35M91 35L92 36L91 35z"/>
<path style="fill:#d5f0e4; stroke:none;" d="M92 35L93 36L92 35z"/>
<path style="fill:#abdfca; stroke:none;" d="M161.667 35.3333L162.333 35.6667L161.667 35.3333M181 35L182 36L181 35M70 36L71 37L70 36z"/>
<path style="fill:#95d7bd; stroke:none;" d="M89 36L90 37L89 36z"/>
<path style="fill:#d5f0e4; stroke:none;" d="M90 36L91 37L90 36z"/>
<path style="fill:#abdfca; stroke:none;" d="M163.667 36.3333L164.333 36.6667L163.667 36.3333M183 36L184 37L183 36z"/>
<path style="fill:#95d7bd; stroke:none;" d="M69 37L70 38L69 37M87 37L88 38L87 37z"/>
<path style="fill:#d5f0e4; stroke:none;" d="M88 37L89 38L88 37z"/>
<path style="fill:#abdfca; stroke:none;" d="M165.667 37.3333L166.333 37.6667L165.667 37.3333M184 37L185 38L184 37z"/>
<path style="fill:#d5f0e4; stroke:none;" d="M67 38L68 39L67 38z"/>
<path style="fill:#95d7bd; stroke:none;" d="M68 38L69 39L68 38M85 38L86 39L85 38z"/>
<path style="fill:#d5f0e4; stroke:none;" d="M86 38L87 39L86 38z"/>
<path style="fill:#abdfca; stroke:none;" d="M167.667 38.3333L168.333 38.6667L167.667 38.3333z"/>
<path style="fill:#95d7bd; stroke:none;" d="M185 38L186 39L185 38z"/>
<path style="fill:#d5f0e4; stroke:none;" d="M186 38L187 39L186 38z"/>
<path style="fill:#abdfca; stroke:none;" d="M66 39L67 40L66 39z"/>
<path style="fill:#95d7bd; stroke:none;" d="M83 39L84 40L83 39z"/>
<path style="fill:#d5f0e4; stroke:none;" d="M84 39L85 40L84 39z"/>
<path style="fill:#abdfca; stroke:none;" d="M170 39L171 40L170 39M187 39L188 40L187 39z"/>
<path style="fill:#95d7bd; stroke:none;" d="M65 40L66 41L65 40M81 40L82 41L81 40z"/>
<path style="fill:#d5f0e4; stroke:none;" d="M82 40L83 41L82 40z"/>
<path style="fill:#abdfca; stroke:none;" d="M171 40L172 41L171 40M188 40L189 41L188 40z"/>
<path style="fill:#d5f0e4; stroke:none;" d="M63 41L64 42L63 41z"/>
<path style="fill:#95d7bd; stroke:none;" d="M64 41L65 42L64 41z"/>
<path style="fill:#abdfca; stroke:none;" d="M80 41L81 42L80 41M173 41L174 42L173 41z"/>
<path style="fill:#d5f0e4; stroke:none;" d="M190 41L191 42L190 41z"/>
<path style="fill:#abdfca; stroke:none;" d="M62 42L63 43L62 42z"/>
<path style="fill:#95d7bd; stroke:none;" d="M78 42L79 43L78 42z"/>
<path style="fill:#d5f0e4; stroke:none;" d="M79 42L80 43L79 42M174 42L175 43L174 42z"/>
<path style="fill:#abdfca; stroke:none;" d="M175 42L176 43L175 42M191 42L192 43L191 42M61 43L62 44L61 43z"/>
<path style="fill:#95d7bd; stroke:none;" d="M76 43L77 44L76 43z"/>
<path style="fill:#d5f0e4; stroke:none;" d="M77 43L78 44L77 43z"/>
<path style="fill:#abdfca; stroke:none;" d="M176 43L177 44L176 43M192 43L193 44L192 43M60 44L61 45L60 44M75 44L76 45L75 44M178 44L179 45L178 44M193 44L194 45L193 44M59 45L60 46L59 45M74 45L75 46L74 45M179 45L180 46L179 45M194 45L195 46L194 45M58 46L59 47L58 46z"/>
<path style="fill:#95d7bd; stroke:none;" d="M72 46L73 47L72 46z"/>
<path style="fill:#d5f0e4; stroke:none;" d="M73 46L74 47L73 46z"/>
<path style="fill:#abdfca; stroke:none;" d="M180 46L181 47L180 46M195 46L196 47L195 46z"/>
<path style="fill:#95d7bd; stroke:none;" d="M57 47L58 48L57 47z"/>
<path style="fill:#abdfca; stroke:none;" d="M71 47L72 48L71 47M182 47L183 48L182 47M196 47L197 48L196 47z"/>
<path style="fill:#95d7bd; stroke:none;" d="M56 48L57 49L56 48z"/>
<path style="fill:#abdfca; stroke:none;" d="M70 48L71 49L70 48M183 48L184 49L183 48z"/>
<path style="fill:#95d7bd; stroke:none;" d="M197 48L198 49L197 48M55 49L56 50L55 49z"/>
<path style="fill:#d5f0e4; stroke:none;" d="M69 49L70 50L69 49z"/>
<path style="fill:#abdfca; stroke:none;" d="M184 49L185 50L184 49M198 49L199 50L198 49M54 50L55 51L54 50z"/>
<path style="fill:#95d7bd; stroke:none;" d="M67 50L68 51L67 50z"/>
<path style="fill:#d5f0e4; stroke:none;" d="M68 50L69 51L68 50M126 50L127 51L126 50z"/>
<path style="fill:#95d7bd; stroke:none;" d="M127 50L128 51L127 50M131 50L132 51L131 50z"/>
<path style="fill:#abdfca; stroke:none;" d="M132 50L133 51L132 50z"/>
<path style="fill:#d5f0e4; stroke:none;" d="M185 50L186 51L185 50z"/>
<path style="fill:#abdfca; stroke:none;" d="M199 50L200 51L199 50M53 51L54 52L53 51z"/>
<path style="fill:#95d7bd; stroke:none;" d="M66 51L67 52L66 51M125 51L126 52L125 51z"/>
<path style="fill:#abdfca; stroke:none;" d="M134 51L135 52L134 51z"/>
<path style="fill:#d5f0e4; stroke:none;" d="M186 51L187 52L186 51z"/>
<path style="fill:#95d7bd; stroke:none;" d="M187 51L188 52L187 51z"/>
<path style="fill:#abdfca; stroke:none;" d="M200 51L201 52L200 51M52 52L53 53L52 52z"/>
<path style="fill:#95d7bd; stroke:none;" d="M65 52L66 53L65 52z"/>
<path style="fill:#abdfca; stroke:none;" d="M124 52L125 53L124 52M136 52L137 53L136 52z"/>
<path style="fill:#95d7bd; stroke:none;" d="M188 52L189 53L188 52z"/>
<path style="fill:#abdfca; stroke:none;" d="M201 52L202 53L201 52M51 53L52 54L51 53M64 53L65 54L64 53M123 53L124 54L123 53M137 53L138 54L137 53z"/>
<path style="fill:#95d7bd; stroke:none;" d="M189 53L190 54L189 53z"/>
<path style="fill:#abdfca; stroke:none;" d="M202 53L203 54L202 53M50 54L51 55L50 54M63 54L64 55L63 54M122.333 54.6667L122.667 55.3333L122.333 54.6667M138 54L139 55L138 54M190 54L191 55L190 54z"/>
<path style="fill:#d5f0e4; stroke:none;" d="M203 54L204 55L203 54M49 55L50 56L49 55z"/>
<path style="fill:#abdfca; stroke:none;" d="M62 55L63 56L62 55z"/>
<path style="fill:#d5f0e4; stroke:none;" d="M139 55L140 56L139 55z"/>
<path style="fill:#abdfca; stroke:none;" d="M191 55L192 56L191 55z"/>
<path style="fill:#d5f0e4; stroke:none;" d="M204 55L205 56L204 55z"/>
<path style="fill:#abdfca; stroke:none;" d="M61 56L62 57L61 56M121.333 56.6667L121.667 57.3333L121.333 56.6667z"/>
<path style="fill:#95d7bd; stroke:none;" d="M192 56L193 57L192 56M204 56L205 57L204 56z"/>
<path style="fill:#abdfca; stroke:none;" d="M48 57L49 58L48 57M60 57L61 58L60 57z"/>
<path style="fill:#95d7bd; stroke:none;" d="M127 57L128 58L127 57z"/>
<path style="fill:#ffffff; stroke:none;" d="M128 57C124.94 62.1632 121.967 67.5354 116 69.7361C109.939 71.9715 102.509 69.792 97.3287 74.4298C87.7335 83.0203 85.2674 96.338 73 103.095C67.9728 105.864 63.826 103.766 59 105.349C46.0916 109.582 37.0239 122.631 38 135C50.659 128.832 53.991 114.564 70.8302 117.032C76.1771 117.816 81.3413 124.732 86 127.55C99.7343 135.858 134.447 150.192 115.787 170.957C102.768 185.444 80.5172 178.107 64 183L64 184C90.9227 204.439 120.244 215.434 154 204.975C175.95 198.173 197.994 182.873 183.07 158C168.356 133.476 138.482 134.959 114 129.349C101.071 126.386 90.8139 120.522 79 115L100.04 85.419L116 78.8565L130.582 69.3449L138.453 83L163 115L164 115C160.46 102.404 166.142 98.2215 175.961 108.039C188.355 120.432 197.315 135.935 213 145C214.778 138.243 209.437 134.441 205 130C196.227 121.219 187.495 112.14 179.093 103C175.791 99.408 173.299 93.3637 168.907 91.0316C162.299 87.5229 156.606 92.4968 150.185 85.8951C141.88 77.356 140.133 61.1362 128 57z"/>
<path style="fill:#d5f0e4; stroke:none;" d="M130 57L131 58L130 57z"/>
<path style="fill:#abdfca; stroke:none;" d="M131 57L132 58L131 57z"/>
<path style="fill:#95d7bd; stroke:none;" d="M140 57L141 58L140 57M193 57L194 58L193 57M205 57L206 58L205 57z"/>
<path style="fill:#abdfca; stroke:none;" d="M47 58L48 59L47 58z"/>
<path style="fill:#95d7bd; stroke:none;" d="M59 58L60 59L59 58z"/>
<path style="fill:#abdfca; stroke:none;" d="M132 58L133 59L132 58M141 58L142 59L141 58z"/>
<path style="fill:#95d7bd; stroke:none;" d="M194 58L195 59L194 58z"/>
<path style="fill:#abdfca; stroke:none;" d="M206 58L207 59L206 58z"/>
<path style="fill:#d5f0e4; stroke:none;" d="M46 59L47 60L46 59z"/>
<path style="fill:#95d7bd; stroke:none;" d="M58 59L59 60L58 59z"/>
<path style="fill:#abdfca; stroke:none;" d="M120 59L121 60L120 59M126 59L127 60L126 59z"/>
<path style="fill:#d5f0e4; stroke:none;" d="M133 59L134 60L133 59M142 59L143 60L142 59M194 59L195 60L194 59M207 59L208 60L207 59z"/>
<path style="fill:#abdfca; stroke:none;" d="M134 60L135 61L134 60z"/>
<path style="fill:#95d7bd; stroke:none;" d="M142 60L143 61L142 60z"/>
<path style="fill:#d5f0e4; stroke:none;" d="M195 60L196 61L195 60z"/>
<path style="fill:#95d7bd; stroke:none;" d="M207 60L208 61L207 60z"/>
<path style="fill:#abdfca; stroke:none;" d="M45 61L46 62L45 61z"/>
<path style="fill:#d5f0e4; stroke:none;" d="M57 61L58 62L57 61z"/>
<path style="fill:#95d7bd; stroke:none;" d="M119 61L120 62L119 61z"/>
<path style="fill:#abdfca; stroke:none;" d="M125 61L126 62L125 61M135 61L136 62L135 61M143 61L144 62L143 61z"/>
<path style="fill:#d5f0e4; stroke:none;" d="M196 61L197 62L196 61z"/>
<path style="fill:#abdfca; stroke:none;" d="M208 61L209 62L208 61M44 62L45 63L44 62M56 62L57 63L56 62M118 62L119 63L118 62z"/>
<path style="fill:#95d7bd; stroke:none;" d="M136 62L137 63L136 62z"/>
<path style="fill:#d5f0e4; stroke:none;" d="M144 62L145 63L144 62z"/>
<path style="fill:#abdfca; stroke:none;" d="M197 62L198 63L197 62M209 62L210 63L209 62M55 63L56 64L55 63M117 63L118 64L117 63M124 63L125 64L124 63z"/>
<path style="fill:#d5f0e4; stroke:none;" d="M136 63L137 64L136 63z"/>
<path style="fill:#95d7bd; stroke:none;" d="M144 63L145 64L144 63M198 63L199 64L198 63z"/>
<path style="fill:#d5f0e4; stroke:none;" d="M210 63L211 64L210 63z"/>
<path style="fill:#abdfca; stroke:none;" d="M43 64L44 65L43 64z"/>
<path style="fill:#95d7bd; stroke:none;" d="M54 64L55 65L54 64z"/>
<path style="fill:#d5f0e4; stroke:none;" d="M115 64L116 65L115 64z"/>
<path style="fill:#abdfca; stroke:none;" d="M123 64L124 65L123 64M137 64L138 65L137 64M145 64L146 65L145 64z"/>
<path style="fill:#95d7bd; stroke:none;" d="M210 64L211 65L210 64z"/>
<path style="fill:#abdfca; stroke:none;" d="M42 65L43 66L42 65z"/>
<path style="fill:#d5f0e4; stroke:none;" d="M54 65L55 66L54 65M111.667 65.3333L112.333 65.6667L111.667 65.3333z"/>
<path style="fill:#95d7bd; stroke:none;" d="M113 65L114 66L113 65M122 65L123 66L122 65M138 65L139 66L138 65z"/>
<path style="fill:#d5f0e4; stroke:none;" d="M199 65L200 66L199 65M211 65L212 66L211 65z"/>
<path style="fill:#abdfca; stroke:none;" d="M53 66L54 67L53 66z"/>
<path style="fill:#d5f0e4; stroke:none;" d="M99 66L100 67L99 66z"/>
<path style="fill:#abdfca; stroke:none;" d="M100 66L101 67L100 66z"/>
<path style="fill:#95d7bd; stroke:none;" d="M101 66L101 67L105 67L101 66M121 66L122 67L121 66z"/>
<path style="fill:#d5f0e4; stroke:none;" d="M138 66L139 67L138 66z"/>
<path style="fill:#abdfca; stroke:none;" d="M146 66L147 67L146 66M200 66L201 67L200 66z"/>
<path style="fill:#95d7bd; stroke:none;" d="M211 66L212 67L211 66z"/>
<path style="fill:#abdfca; stroke:none;" d="M41 67L42 68L41 67M52 67L53 68L52 67z"/>
<path style="fill:#d5f0e4; stroke:none;" d="M97 67L98 68L97 67z"/>
<path style="fill:#95d7bd; stroke:none;" d="M98 67L99 68L98 67z"/>
<path style="fill:#abdfca; stroke:none;" d="M120 67L121 68L120 67z"/>
<path style="fill:#95d7bd; stroke:none;" d="M139 67L140 68L139 67M201 67L202 68L201 67z"/>
<path style="fill:#abdfca; stroke:none;" d="M212 67L213 68L212 67z"/>
<path style="fill:#d5f0e4; stroke:none;" d="M40 68L41 69L40 68M95 68L96 69L95 68z"/>
<path style="fill:#95d7bd; stroke:none;" d="M96 68L97 69L96 68M118 68L119 69L118 68z"/>
<path style="fill:#d5f0e4; stroke:none;" d="M119 68L120 69L119 68z"/>
<path style="fill:#abdfca; stroke:none;" d="M128 68L129 69L128 68M130 68L131 69L130 68z"/>
<path style="fill:#d5f0e4; stroke:none;" d="M131 68L132 69L131 68M139 68L140 69L139 68z"/>
<path style="fill:#abdfca; stroke:none;" d="M147 68L148 69L147 68z"/>
<path style="fill:#d5f0e4; stroke:none;" d="M213 68L214 69L213 68z"/>
<path style="fill:#abdfca; stroke:none;" d="M40 69L41 70L40 69M51 69L52 70L51 69M94 69L95 70L94 69z"/>
<path style="fill:#95d7bd; stroke:none;" d="M115 69L116 70L115 69z"/>
<path style="fill:#abdfca; stroke:none;" d="M116 69L117 70L116 69z"/>
<path style="fill:#d5f0e4; stroke:none;" d="M117 69L118 70L117 69z"/>
<path style="fill:#abdfca; stroke:none;" d="M127 69L128 70L127 69z"/>
<path style="fill:#95d7bd; stroke:none;" d="M131 69L132 70L131 69M140 69L141 70L140 69z"/>
<path style="fill:#d5f0e4; stroke:none;" d="M148 69L149 70L148 69M202 69L203 70L202 69z"/>
<path style="fill:#95d7bd; stroke:none;" d="M213 69L214 70L213 69z"/>
<path style="fill:#abdfca; stroke:none;" d="M39 70L40 71L39 70M50 70L51 71L50 70M93 70L94 71L93 70z"/>
<path style="fill:#95d7bd; stroke:none;" d="M105 70L105 71L108 71L105 70z"/>
<path style="fill:#abdfca; stroke:none;" d="M108 70L108 71L111 71L108 70z"/>
<path style="fill:#d5f0e4; stroke:none;" d="M111 70L111 71L114 71L111 70z"/>
<path style="fill:#abdfca; stroke:none;" d="M126 70L127 71L126 70z"/>
<path style="fill:#d5f0e4; stroke:none;" d="M132 70L133 71L132 70M140 70L141 71L140 70z"/>
<path style="fill:#95d7bd; stroke:none;" d="M148 70L149 71L148 70M203 70L204 71L203 70z"/>
<path style="fill:#d5f0e4; stroke:none;" d="M214 70L215 71L214 70z"/>
<path style="fill:#abdfca; stroke:none;" d="M92 71L93 72L92 71z"/>
<path style="fill:#95d7bd; stroke:none;" d="M101 71L102 72L101 71z"/>
<path style="fill:#d5f0e4; stroke:none;" d="M102.667 71.3333L103.333 71.6667L102.667 71.3333z"/>
<path style="fill:#95d7bd; stroke:none;" d="M125 71L126 72L125 71z"/>
<path style="fill:#abdfca; stroke:none;" d="M132 71L133 72L132 71z"/>
<path style="fill:#95d7bd; stroke:none;" d="M141 71L142 72L141 71z"/>
<path style="fill:#d5f0e4; stroke:none;" d="M149 71L150 72L149 71M203 71L204 72L203 71z"/>
<path style="fill:#abdfca; stroke:none;" d="M38 72L39 73L38 72M49 72L50 73L49 72M91 72L92 73L91 72M99 72L100 73L99 72z"/>
<path style="fill:#95d7bd; stroke:none;" d="M124 72L125 73L124 72M132 72L133 73L132 72z"/>
<path style="fill:#d5f0e4; stroke:none;" d="M141 72L142 73L141 72z"/>
<path style="fill:#95d7bd; stroke:none;" d="M149 72L150 73L149 72z"/>
<path style="fill:#abdfca; stroke:none;" d="M204 72L205 73L204 72z"/>
<path style="fill:#d5f0e4; stroke:none;" d="M215 72L216 73L215 72z"/>
<path style="fill:#95d7bd; stroke:none;" d="M48 73L49 74L48 73z"/>
<path style="fill:#abdfca; stroke:none;" d="M90 73L91 74L90 73z"/>
<path style="fill:#95d7bd; stroke:none;" d="M97 73L98 74L97 73z"/>
<path style="fill:#d5f0e4; stroke:none;" d="M122 73L123 74L122 73M133 73L134 74L133 73z"/>
<path style="fill:#95d7bd; stroke:none;" d="M142 73L143 74L142 73z"/>
<path style="fill:#d5f0e4; stroke:none;" d="M150 73L151 74L150 73z"/>
<path style="fill:#95d7bd; stroke:none;" d="M215 73L216 74L215 73z"/>
<path style="fill:#abdfca; stroke:none;" d="M37 74L38 75L37 74M48 74L49 75L48 74z"/>
<path style="fill:#d5f0e4; stroke:none;" d="M89 74L90 75L89 74z"/>
<path style="fill:#95d7bd; stroke:none;" d="M96 74L97 75L96 74z"/>
<path style="fill:#d5f0e4; stroke:none;" d="M121 74L122 75L121 74z"/>
<path style="fill:#95d7bd; stroke:none;" d="M133 74L134 75L133 74z"/>
<path style="fill:#d5f0e4; stroke:none;" d="M142 74L143 75L142 74z"/>
<path style="fill:#95d7bd; stroke:none;" d="M150 74L151 75L150 74z"/>
<path style="fill:#d5f0e4; stroke:none;" d="M205 74L206 75L205 74M216 74L217 75L216 74z"/>
<path style="fill:#abdfca; stroke:none;" d="M47 75L48 76L47 75M120 75L121 76L120 75z"/>
<path style="fill:#d5f0e4; stroke:none;" d="M134 75L135 76L134 75z"/>
<path style="fill:#95d7bd; stroke:none;" d="M143 75L144 76L143 75z"/>
<path style="fill:#d5f0e4; stroke:none;" d="M151 75L152 76L151 75z"/>
<path style="fill:#95d7bd; stroke:none;" d="M206 75L207 76L206 75M216 75L217 76L216 75z"/>
<path style="fill:#abdfca; stroke:none;" d="M36 76L37 77L36 76z"/>
<path style="fill:#95d7bd; stroke:none;" d="M88 76L89 77L88 76z"/>
<path style="fill:#abdfca; stroke:none;" d="M95 76L96 77L95 76M119 76L120 77L119 76z"/>
<path style="fill:#95d7bd; stroke:none;" d="M134 76L135 77L134 76z"/>
<path style="fill:#d5f0e4; stroke:none;" d="M143 76L144 77L143 76z"/>
<path style="fill:#95d7bd; stroke:none;" d="M151 76L152 77L151 76z"/>
<path style="fill:#d5f0e4; stroke:none;" d="M206 76L207 77L206 76M217 76L218 77L217 76z"/>
<path style="fill:#abdfca; stroke:none;" d="M46 77L47 78L46 77M87 77L88 78L87 77M94 77L95 78L94 77z"/>
<path style="fill:#95d7bd; stroke:none;" d="M118 77L119 78L118 77z"/>
<path style="fill:#d5f0e4; stroke:none;" d="M135 77L136 78L135 77z"/>
<path style="fill:#abdfca; stroke:none;" d="M144 77L145 78L144 77z"/>
<path style="fill:#d5f0e4; stroke:none;" d="M152 77L153 78L152 77z"/>
<path style="fill:#95d7bd; stroke:none;" d="M207 77L208 78L207 77M217 77L218 78L217 77z"/>
<path style="fill:#abdfca; stroke:none;" d="M35 78L36 79L35 78M86 78L87 79L86 78z"/>
<path style="fill:#d5f0e4; stroke:none;" d="M116 78L117 79L116 78z"/>
<path style="fill:#95d7bd; stroke:none;" d="M135 78L136 79L135 78M152 78L153 79L152 78z"/>
<path style="fill:#d5f0e4; stroke:none;" d="M207 78L208 79L207 78M218 78L219 79L218 78z"/>
<path style="fill:#abdfca; stroke:none;" d="M45 79L46 80L45 79z"/>
<path style="fill:#d5f0e4; stroke:none;" d="M85 79L86 80L85 79z"/>
<path style="fill:#abdfca; stroke:none;" d="M93 79L94 80L93 79z"/>
<path style="fill:#95d7bd; stroke:none;" d="M115 79L116 80L115 79z"/>
<path style="fill:#d5f0e4; stroke:none;" d="M136 79L137 80L136 79z"/>
<path style="fill:#abdfca; stroke:none;" d="M145 79L146 80L145 79z"/>
<path style="fill:#d5f0e4; stroke:none;" d="M153 79L154 80L153 79z"/>
<path style="fill:#95d7bd; stroke:none;" d="M208 79L209 80L208 79M218 79L219 80L218 79z"/>
<path style="fill:#abdfca; stroke:none;" d="M34.3333 80.6667L34.6667 81.3333L34.3333 80.6667M113 80L114 81L113 80z"/>
<path style="fill:#95d7bd; stroke:none;" d="M136 80L137 81L136 80M146 80L147 81L146 80z"/>
<path style="fill:#d5f0e4; stroke:none;" d="M208 80L209 81L208 80M219 80L220 81L219 80z"/>
<path style="fill:#abdfca; stroke:none;" d="M44 81L45 82L44 81M84 81L85 82L84 81M92 81L93 82L92 81z"/>
<path style="fill:#d5f0e4; stroke:none;" d="M109.667 81.3333L110.333 81.6667L109.667 81.3333z"/>
<path style="fill:#95d7bd; stroke:none;" d="M111 81L112 82L111 81z"/>
<path style="fill:#d5f0e4; stroke:none;" d="M137 81L138 82L137 81M146 81L147 82L146 81z"/>
<path style="fill:#95d7bd; stroke:none;" d="M154 81L155 82L154 81M209 81L210 82L209 81M219 81L220 82L219 81z"/>
<path style="fill:#d5f0e4; stroke:none;" d="M44 82L45 83L44 82z"/>
<path style="fill:#abdfca; stroke:none;" d="M83 82L84 83L83 82z"/>
<path style="fill:#d5f0e4; stroke:none;" d="M105 82L106 83L105 82z"/>
<path style="fill:#abdfca; stroke:none;" d="M106 82L107 83L106 82z"/>
<path style="fill:#95d7bd; stroke:none;" d="M107 82L108 83L107 82M137 82L138 83L137 82z"/>
<path style="fill:#abdfca; stroke:none;" d="M147 82L148 83L147 82z"/>
<path style="fill:#95d7bd; stroke:none;" d="M155 82L156 83L155 82z"/>
<path style="fill:#d5f0e4; stroke:none;" d="M209 82L210 83L209 82z"/>
<path style="fill:#abdfca; stroke:none;" d="M33.3333 83.6667L33.6667 84.3333L33.3333 83.6667M43.3333 83.6667L43.6667 84.3333L43.3333 83.6667M82 83L83 84L82 83M91 83L92 84L91 83z"/>
<path style="fill:#d5f0e4; stroke:none;" d="M102 83L103 84L102 83z"/>
<path style="fill:#95d7bd; stroke:none;" d="M103 83L104 84L103 83z"/>
<path style="fill:#abdfca; stroke:none;" d="M138 83L139 84L138 83z"/>
<path style="fill:#95d7bd; stroke:none;" d="M148 83L149 84L148 83z"/>
<path style="fill:#abdfca; stroke:none;" d="M157 83L158 84L157 83z"/>
<path style="fill:#95d7bd; stroke:none;" d="M210 83L211 84L210 83z"/>
<path style="fill:#d5f0e4; stroke:none;" d="M220 83L221 84L220 83z"/>
<path style="fill:#abdfca; stroke:none;" d="M90 84L91 85L90 84z"/>
<path style="fill:#d5f0e4; stroke:none;" d="M100 84L101 85L100 84z"/>
<path style="fill:#95d7bd; stroke:none;" d="M101 84L102 85L101 84z"/>
<path style="fill:#d5f0e4; stroke:none;" d="M139 84L140 85L139 84M148 84L149 85L148 84z"/>
<path style="fill:#95d7bd; stroke:none;" d="M159 84L159 85L164 85L159 84M169 84L170 85L169 84z"/>
<path style="fill:#abdfca; stroke:none;" d="M170 84L171 85L170 84z"/>
<path style="fill:#d5f0e4; stroke:none;" d="M171 84L172 85L171 84M210 84L211 85L210 84z"/>
<path style="fill:#95d7bd; stroke:none;" d="M220 84L221 85L220 84M81 85L82 86L81 85z"/>
<path style="fill:#abdfca; stroke:none;" d="M99 85L100 86L99 85z"/>
<path style="fill:#95d7bd; stroke:none;" d="M139 85L140 86L139 85z"/>
<path style="fill:#abdfca; stroke:none;" d="M149 85L150 86L149 85M173 85L174 86L173 85z"/>
<path style="fill:#d5f0e4; stroke:none;" d="M221.333 85.6667L221.667 86.3333L221.333 85.6667z"/>
<path style="fill:#abdfca; stroke:none;" d="M32 86L33 87L32 86M42 86L43 87L42 86M80 86L81 87L80 86M89 86L90 87L89 86M98 86L99 87L98 86M140 86L141 87L140 86M150 86L151 87L150 86M175 86L176 87L175 86z"/>
<path style="fill:#95d7bd; stroke:none;" d="M211 86L212 87L211 86z"/>
<path style="fill:#d5f0e4; stroke:none;" d="M42 87L43 88L42 87z"/>
<path style="fill:#abdfca; stroke:none;" d="M79 87L80 88L79 87M88 87L89 88L88 87M97 87L98 88L97 87z"/>
<path style="fill:#d5f0e4; stroke:none;" d="M141 87L142 88L141 87z"/>
<path style="fill:#abdfca; stroke:none;" d="M151 87L152 88L151 87z"/>
<path style="fill:#95d7bd; stroke:none;" d="M176 87L177 88L176 87z"/>
<path style="fill:#d5f0e4; stroke:none;" d="M177 87L178 88L177 87M211 87L212 88L211 87z"/>
<path style="fill:#95d7bd; stroke:none;" d="M221 87L222 88L221 87z"/>
<path style="fill:#d5f0e4; stroke:none;" d="M31 88L32 89L31 88M78 88L79 89L78 88M96 88L97 89L96 88z"/>
<path style="fill:#95d7bd; stroke:none;" d="M141 88L142 89L141 88z"/>
<path style="fill:#abdfca; stroke:none;" d="M152 88L153 89L152 88M178 88L179 89L178 88z"/>
<path style="fill:#d5f0e4; stroke:none;" d="M222 88L223 89L222 88z"/>
<path style="fill:#abdfca; stroke:none;" d="M31 89L32 90L31 89M41 89L42 90L41 89z"/>
<path style="fill:#d5f0e4; stroke:none;" d="M77 89L78 90L77 89M87 89L88 90L87 89z"/>
<path style="fill:#95d7bd; stroke:none;" d="M96 89L97 90L96 89M142 89L143 90L142 89z"/>
<path style="fill:#abdfca; stroke:none;" d="M154 89L155 90L154 89z"/>
<path style="fill:#95d7bd; stroke:none;" d="M164 89L164 90L168 90L164 89z"/>
<path style="fill:#d5f0e4; stroke:none;" d="M179 89L180 90L179 89z"/>
<path style="fill:#95d7bd; stroke:none;" d="M212 89L213 90L212 89M222.333 89.6667L222.667 90.3333L222.333 89.6667M31 90L32 91L31 90z"/>
<path style="fill:#abdfca; stroke:none;" d="M86 90L87 91L86 90M95 90L96 91L95 90M143 90L144 91L143 90M156.667 90.3333L157.333 90.6667L156.667 90.3333z"/>
<path style="fill:#95d7bd; stroke:none;" d="M158 90L158 91L161 91L158 90z"/>
<path style="fill:#abdfca; stroke:none;" d="M161 90L162 91L161 90z"/>
<path style="fill:#d5f0e4; stroke:none;" d="M162 90L163 91L162 90z"/>
<path style="fill:#abdfca; stroke:none;" d="M169 90L170 91L169 90z"/>
<path style="fill:#d5f0e4; stroke:none;" d="M180 90L181 91L180 90M212 90L213 91L212 90z"/>
<path style="fill:#abdfca; stroke:none;" d="M40.3333 91.6667L40.6667 92.3333L40.3333 91.6667z"/>
<path style="fill:#95d7bd; stroke:none;" d="M76 91L77 92L76 91z"/>
<path style="fill:#abdfca; stroke:none;" d="M85 91L86 92L85 91M94 91L95 92L94 91z"/>
<path style="fill:#d5f0e4; stroke:none;" d="M144 91L145 92L144 91M170 91L171 92L170 91M181 91L182 92L181 91z"/>
<path style="fill:#95d7bd; stroke:none;" d="M213 91L214 92L213 91z"/>
<path style="fill:#abdfca; stroke:none;" d="M30.3333 92.6667L30.6667 93.3333L30.3333 92.6667z"/>
<path style="fill:#95d7bd; stroke:none;" d="M75 92L76 93L75 92M84 92L85 93L84 92z"/>
<path style="fill:#abdfca; stroke:none;" d="M171 92L172 93L171 92z"/>
<path style="fill:#95d7bd; stroke:none;" d="M181 92L182 93L181 92z"/>
<path style="fill:#abdfca; stroke:none;" d="M213 92L214 93L213 92z"/>
<path style="fill:#d5f0e4; stroke:none;" d="M223 92L224 93L223 92z"/>
<path style="fill:#95d7bd; stroke:none;" d="M74 93L75 94L74 93z"/>
<path style="fill:#d5f0e4; stroke:none;" d="M84 93L85 94L84 93z"/>
<path style="fill:#abdfca; stroke:none;" d="M93 93L94 94L93 93z"/>
<path style="fill:#95d7bd; stroke:none;" d="M145 93L146 94L145 93M172 93L173 94L172 93z"/>
<path style="fill:#abdfca; stroke:none;" d="M182 93L183 94L182 93z"/>
<path style="fill:#d5f0e4; stroke:none;" d="M213 93L214 94L213 93z"/>
<path style="fill:#95d7bd; stroke:none;" d="M223.333 93.6667L223.667 94.3333L223.333 93.6667M30 94L31 95L30 94z"/>
<path style="fill:#d5f0e4; stroke:none;" d="M72 94L73 95L72 94z"/>
<path style="fill:#abdfca; stroke:none;" d="M83 94L84 95L83 94M92 94L93 95L92 94M146 94L147 95L146 94z"/>
<path style="fill:#d5f0e4; stroke:none;" d="M172 94L173 95L172 94M183 94L184 95L183 94z"/>
<path style="fill:#abdfca; stroke:none;" d="M39.3333 95.6667L39.6667 96.3333L39.3333 95.6667z"/>
<path style="fill:#d5f0e4; stroke:none;" d="M57 95L58 96L57 95z"/>
<path style="fill:#abdfca; stroke:none;" d="M58 95L58 96L61 96L58 95M71 95L72 96L71 95M82 95L83 96L82 95M147 95L148 96L147 95z"/>
<path style="fill:#95d7bd; stroke:none;" d="M173 95L174 96L173 95M214 95L215 96L214 95z"/>
<path style="fill:#abdfca; stroke:none;" d="M29.3333 96.6667L29.6667 97.3333L29.3333 96.6667z"/>
<path style="fill:#95d7bd; stroke:none;" d="M56 96L57 97L56 96z"/>
<path style="fill:#abdfca; stroke:none;" d="M62 96L63 97L62 96z"/>
<path style="fill:#d5f0e4; stroke:none;" d="M69 96L70 97L69 96z"/>
<path style="fill:#95d7bd; stroke:none;" d="M70 96L71 97L70 96z"/>
<path style="fill:#abdfca; stroke:none;" d="M81 96L82 97L81 96M91 96L92 97L91 96z"/>
<path style="fill:#d5f0e4; stroke:none;" d="M148 96L149 97L148 96z"/>
<path style="fill:#95d7bd; stroke:none;" d="M184 96L185 97L184 96z"/>
<path style="fill:#abdfca; stroke:none;" d="M214 96L215 97L214 96z"/>
<path style="fill:#d5f0e4; stroke:none;" d="M224 96L225 97L224 96z"/>
<path style="fill:#95d7bd; stroke:none;" d="M55 97L56 98L55 97M64 97L65 98L64 97z"/>
<path style="fill:#abdfca; stroke:none;" d="M65 97L66 98L65 97z"/>
<path style="fill:#95d7bd; stroke:none;" d="M66.6667 97.3333L67.3333 97.6667L66.6667 97.3333z"/>
<path style="fill:#abdfca; stroke:none;" d="M80 97L81 98L80 97z"/>
<path style="fill:#d5f0e4; stroke:none;" d="M174 97L175 98L174 97M185 97L186 98L185 97M214 97L215 98L214 97z"/>
<path style="fill:#95d7bd; stroke:none;" d="M224.333 97.6667L224.667 98.3333L224.333 97.6667z"/>
<path style="fill:#abdfca; stroke:none;" d="M54 98L55 99L54 98M79 98L80 99L79 98M90 98L91 99L90 98z"/>
<path style="fill:#95d7bd; stroke:none;" d="M149 98L150 99L149 98z"/>
<path style="fill:#abdfca; stroke:none;" d="M175 98L176 99L175 98M38.3333 99.6667L38.6667 100.333L38.3333 99.6667M53 99L54 100L53 99M78 99L79 100L78 99M89 99L90 100L89 99M150 99L151 100L150 99z"/>
<path style="fill:#95d7bd; stroke:none;" d="M176 99L177 100L176 99M186 99L187 100L186 99M215 99L216 100L215 99z"/>
<path style="fill:#d5f0e4; stroke:none;" d="M28 100L29 101L28 100z"/>
<path style="fill:#abdfca; stroke:none;" d="M52 100L53 101L52 100z"/>
<path style="fill:#d5f0e4; stroke:none;" d="M77 100L78 101L77 100z"/>
<path style="fill:#95d7bd; stroke:none;" d="M89 100L90 101L89 100z"/>
<path style="fill:#abdfca; stroke:none;" d="M151 100L152 101L151 100z"/>
<path style="fill:#d5f0e4; stroke:none;" d="M165 100L166 101L165 100z"/>
<path style="fill:#abdfca; stroke:none;" d="M166 100L167 101L166 100z"/>
<path style="fill:#d5f0e4; stroke:none;" d="M176 100L177 101L176 100M187 100L188 101L187 100M215 100L215 103L216 103L215 100M225.333 100.667L225.667 101.333L225.333 100.667z"/>
<path style="fill:#abdfca; stroke:none;" d="M28 101L28 104L29 104L28 101z"/>
<path style="fill:#d5f0e4; stroke:none;" d="M38 101L39 102L38 101z"/>
<path style="fill:#abdfca; stroke:none;" d="M51 101L52 102L51 101z"/>
<path style="fill:#95d7bd; stroke:none;" d="M75 101L76 102L75 101z"/>
<path style="fill:#abdfca; stroke:none;" d="M88 101L89 102L88 101z"/>
<path style="fill:#d5f0e4; stroke:none;" d="M152 101L153 102L152 101M163 101L164 102L163 101z"/>
<path style="fill:#95d7bd; stroke:none;" d="M164 101L165 102L164 101M167 101L168 102L167 101z"/>
<path style="fill:#d5f0e4; stroke:none;" d="M168 101L169 102L168 101z"/>
<path style="fill:#abdfca; stroke:none;" d="M177 101L178 102L177 101z"/>
<path style="fill:#d5f0e4; stroke:none;" d="M50 102L51 103L50 102z"/>
<path style="fill:#95d7bd; stroke:none;" d="M73 102L74 103L73 102z"/>
<path style="fill:#d5f0e4; stroke:none;" d="M74 102L75 103L74 102M153 102L154 103L153 102z"/>
<path style="fill:#abdfca; stroke:none;" d="M169 102L170 103L169 102M178 102L179 103L178 102z"/>
<path style="fill:#95d7bd; stroke:none;" d="M188 102L189 103L188 102z"/>
<path style="fill:#abdfca; stroke:none;" d="M225 102L226 103L225 102z"/>
<path style="fill:#95d7bd; stroke:none;" d="M37.3333 103.667L37.6667 104.333L37.3333 103.667M50 103L51 104L50 103M71 103L72 104L71 103z"/>
<path style="fill:#abdfca; stroke:none;" d="M72 103L73 104L72 103M87 103L88 104L87 103z"/>
<path style="fill:#95d7bd; stroke:none;" d="M153 103L154 104L153 103z"/>
<path style="fill:#abdfca; stroke:none;" d="M162 103L162 107L163 107L162 103z"/>
<path style="fill:#95d7bd; stroke:none;" d="M170 103L171 104L170 103z"/>
<path style="fill:#abdfca; stroke:none;" d="M179 103L180 104L179 103M189 103L190 104L189 103z"/>
<path style="fill:#95d7bd; stroke:none;" d="M225.333 103.667L225.667 104.333L225.333 103.667M28 104L29 105L28 104z"/>
<path style="fill:#abdfca; stroke:none;" d="M49 104L50 105L49 104z"/>
<path style="fill:#95d7bd; stroke:none;" d="M58 104L59 105L58 104z"/>
<path style="fill:#abdfca; stroke:none;" d="M60 104L61 105L60 104z"/>
<path style="fill:#95d7bd; stroke:none;" d="M61 104L62 105L61 104M68.6667 104.333L69.3333 104.667L68.6667 104.333z"/>
<path style="fill:#d5f0e4; stroke:none;" d="M70 104L71 105L70 104z"/>
<path style="fill:#95d7bd; stroke:none;" d="M154 104L155 105L154 104z"/>
<path style="fill:#abdfca; stroke:none;" d="M172 104L173 105L172 104M180 104L181 105L180 104z"/>
<path style="fill:#d5f0e4; stroke:none;" d="M190 104L191 105L190 104z"/>
<path style="fill:#95d7bd; stroke:none;" d="M216.333 104.667L216.667 105.333L216.333 104.667z"/>
<path style="fill:#abdfca; stroke:none;" d="M37.3333 105.667L37.6667 106.333L37.3333 105.667M48 105L49 106L48 105M57 105L58 106L57 105z"/>
<path style="fill:#d5f0e4; stroke:none;" d="M63 105L63 106L68 106L63 105z"/>
<path style="fill:#95d7bd; stroke:none;" d="M86 105L87 106L86 105z"/>
<path style="fill:#abdfca; stroke:none;" d="M155 105L156 106L155 105M173 105L174 106L173 105M181 105L182 106L181 105z"/>
<path style="fill:#95d7bd; stroke:none;" d="M190 105L191 106L190 105z"/>
<path style="fill:#abdfca; stroke:none;" d="M56 106L57 107L56 106M85 106L86 107L85 106M156 106L157 107L156 106M174 106L175 107L174 106M182 106L183 107L182 106z"/>
<path style="fill:#95d7bd; stroke:none;" d="M191 106L192 107L191 106z"/>
<path style="fill:#abdfca; stroke:none;" d="M216 106L217 107L216 106z"/>
<path style="fill:#d5f0e4; stroke:none;" d="M226.333 106.667L226.667 107.333L226.333 106.667M27 107L28 108L27 107M37 107L38 108L37 107z"/>
<path style="fill:#abdfca; stroke:none;" d="M47 107L48 108L47 107M55 107L56 108L55 107z"/>
<path style="fill:#d5f0e4; stroke:none;" d="M84 107L85 108L84 107M157 107L158 108L157 107M162 107L162 110L163 110L162 107z"/>
<path style="fill:#abdfca; stroke:none;" d="M175 107L176 108L175 107M183 107L184 108L183 107M192 107L193 108L192 107z"/>
<path style="fill:#d5f0e4; stroke:none;" d="M216.333 107.667L216.667 108.333L216.333 107.667z"/>
<path style="fill:#abdfca; stroke:none;" d="M27 108L27 112L28 112L27 108M46 108L47 109L46 108z"/>
<path style="fill:#d5f0e4; stroke:none;" d="M54 108L55 109L54 108z"/>
<path style="fill:#95d7bd; stroke:none;" d="M84 108L85 109L84 108z"/>
<path style="fill:#abdfca; stroke:none;" d="M176 108L177 109L176 108M184 108L185 109L184 108z"/>
<path style="fill:#95d7bd; stroke:none;" d="M193 108L194 109L193 108z"/>
<path style="fill:#abdfca; stroke:none;" d="M226 108L226 111L227 111L226 108z"/>
<path style="fill:#d5f0e4; stroke:none;" d="M53 109L54 110L53 109z"/>
<path style="fill:#abdfca; stroke:none;" d="M83 109L84 110L83 109z"/>
<path style="fill:#95d7bd; stroke:none;" d="M158 109L159 110L158 109z"/>
<path style="fill:#abdfca; stroke:none;" d="M177 109L178 110L177 109M185 109L186 110L185 109z"/>
<path style="fill:#95d7bd; stroke:none;" d="M194 109L195 110L194 109M36 110L36 114L37 114L36 110z"/>
<path style="fill:#abdfca; stroke:none;" d="M45 110L46 111L45 110z"/>
<path style="fill:#95d7bd; stroke:none;" d="M51 110L52 111L51 110z"/>
<path style="fill:#abdfca; stroke:none;" d="M82 110L83 111L82 110M159 110L160 111L159 110z"/>
<path style="fill:#d5f0e4; stroke:none;" d="M178 110L179 111L178 110z"/>
<path style="fill:#abdfca; stroke:none;" d="M186 110L187 111L186 110z"/>
<path style="fill:#95d7bd; stroke:none;" d="M195 110L196 111L195 110z"/>
<path style="fill:#d5f0e4; stroke:none;" d="M196 110L197 111L196 110z"/>
<path style="fill:#abdfca; stroke:none;" d="M44 111L45 112L44 111z"/>
<path style="fill:#95d7bd; stroke:none;" d="M50 111L51 112L50 111z"/>
<path style="fill:#d5f0e4; stroke:none;" d="M81 111L82 112L81 111z"/>
<path style="fill:#abdfca; stroke:none;" d="M160 111L161 112L160 111z"/>
<path style="fill:#95d7bd; stroke:none;" d="M163.333 111.667L163.667 112.333L163.333 111.667z"/>
<path style="fill:#d5f0e4; stroke:none;" d="M179 111L180 112L179 111M187 111L188 112L187 111M197 111L198 112L197 111z"/>
<path style="fill:#95d7bd; stroke:none;" d="M226 111L226 117L227 117L226 111M27 112L27 116L28 116L27 112z"/>
<path style="fill:#d5f0e4; stroke:none;" d="M43 112L44 113L43 112z"/>
<path style="fill:#abdfca; stroke:none;" d="M49 112L50 113L49 112z"/>
<path style="fill:#d5f0e4; stroke:none;" d="M80 112L81 113L80 112M161 112L162 113L161 112z"/>
<path style="fill:#95d7bd; stroke:none;" d="M179 112L180 113L179 112z"/>
<path style="fill:#abdfca; stroke:none;" d="M188 112L189 113L188 112M198 112L199 113L198 112z"/>
<path style="fill:#95d7bd; stroke:none;" d="M217 112L217 118L218 118L217 112M43 113L44 114L43 113z"/>
<path style="fill:#abdfca; stroke:none;" d="M48 113L49 114L48 113M79.3333 113.667L79.6667 114.333L79.3333 113.667z"/>
<path style="fill:#95d7bd; stroke:none;" d="M161 113L162 114L161 113z"/>
<path style="fill:#d5f0e4; stroke:none;" d="M163 113L164 114L163 113z"/>
<path style="fill:#abdfca; stroke:none;" d="M180 113L181 114L180 113M189 113L190 114L189 113M199 113L200 114L199 113M36 114L38 120L36 114M42 114L43 115L42 114z"/>
<path style="fill:#d5f0e4; stroke:none;" d="M47 114L48 115L47 114z"/>
<path style="fill:#abdfca; stroke:none;" d="M162 114L163 115L162 114M181 114L182 115L181 114M190 114L191 115L190 114M200 114L201 115L200 114M41 115L42 116L41 115z"/>
<path style="fill:#95d7bd; stroke:none;" d="M45 115L46 116L45 115z"/>
<path style="fill:#d5f0e4; stroke:none;" d="M46 115L47 116L46 115M80 115L81 116L80 115M163 115L164 116L163 115z"/>
<path style="fill:#95d7bd; stroke:none;" d="M164 115L165 116L164 115z"/>
<path style="fill:#d5f0e4; stroke:none;" d="M182 115L183 116L182 115z"/>
<path style="fill:#abdfca; stroke:none;" d="M191 115L192 116L191 115z"/>
<path style="fill:#95d7bd; stroke:none;" d="M201 115L202 116L201 115z"/>
<path style="fill:#d5f0e4; stroke:none;" d="M202 115L203 116L202 115z"/>
<path style="fill:#abdfca; stroke:none;" d="M40 116L41 117L40 116z"/>
<path style="fill:#95d7bd; stroke:none;" d="M44 116L45 117L44 116z"/>
<path style="fill:#d5f0e4; stroke:none;" d="M72 116L73 117L72 116z"/>
<path style="fill:#abdfca; stroke:none;" d="M82 116L83 117L82 116M164 116L165 117L164 116z"/>
<path style="fill:#95d7bd; stroke:none;" d="M182 116L183 117L182 116z"/>
<path style="fill:#abdfca; stroke:none;" d="M192 116L193 117L192 116M203 116L204 117L203 116M39 117L40 118L39 117M43 117L44 118L43 117z"/>
<path style="fill:#d5f0e4; stroke:none;" d="M58 117L59 118L58 117z"/>
<path style="fill:#abdfca; stroke:none;" d="M59 117L60 118L59 117z"/>
<path style="fill:#95d7bd; stroke:none;" d="M60.6667 117.333L61.3333 117.667L60.6667 117.333z"/>
<path style="fill:#abdfca; stroke:none;" d="M62 117L62 118L65 118L62 117z"/>
<path style="fill:#d5f0e4; stroke:none;" d="M65 117L65 118L69 118L65 117z"/>
<path style="fill:#abdfca; stroke:none;" d="M69 117L70 118L69 117z"/>
<path style="fill:#95d7bd; stroke:none;" d="M70 117L71 118L70 117z"/>
<path style="fill:#abdfca; stroke:none;" d="M73 117L74 118L73 117M83 117L84 118L83 117M183 117L184 118L183 117M193 117L194 118L193 117M204 117L205 118L204 117M38 118L39 119L38 118M42 118L43 119L42 118z"/>
<path style="fill:#d5f0e4; stroke:none;" d="M56 118L57 119L56 118z"/>
<path style="fill:#95d7bd; stroke:none;" d="M57 118L58 119L57 118z"/>
<path style="fill:#abdfca; stroke:none;" d="M74 118L75 119L74 118M85 118L86 119L85 118z"/>
<path style="fill:#d5f0e4; stroke:none;" d="M184 118L185 119L184 118z"/>
<path style="fill:#95d7bd; stroke:none;" d="M194 118L195 119L194 118z"/>
<path style="fill:#abdfca; stroke:none;" d="M205 118L206 119L205 118M217 118L217 121L218 121L217 118M41 119L42 120L41 119z"/>
<path style="fill:#95d7bd; stroke:none;" d="M55 119L56 120L55 119z"/>
<path style="fill:#abdfca; stroke:none;" d="M75 119L76 120L75 119M87 119L88 120L87 119z"/>
<path style="fill:#95d7bd; stroke:none;" d="M195 119L196 120L195 119z"/>
<path style="fill:#abdfca; stroke:none;" d="M207 119L208 120L207 119z"/>
<path style="fill:#d5f0e4; stroke:none;" d="M40 120L41 121L40 120M53 120L54 121L53 120z"/>
<path style="fill:#abdfca; stroke:none;" d="M76 120L77 121L76 120M88.6667 120.333L89.3333 120.667L88.6667 120.333z"/>
<path style="fill:#95d7bd; stroke:none;" d="M185 120L186 121L185 120z"/>
<path style="fill:#abdfca; stroke:none;" d="M208 120L209 121L208 120z"/>
<path style="fill:#95d7bd; stroke:none;" d="M38 121L39 122L38 121z"/>
<path style="fill:#d5f0e4; stroke:none;" d="M39 121L40 122L39 121z"/>
<path style="fill:#abdfca; stroke:none;" d="M52 121L53 122L52 121M77 121L78 122L77 121M90.6667 121.333L91.3333 121.667L90.6667 121.333M186 121L187 122L186 121z"/>
<path style="fill:#d5f0e4; stroke:none;" d="M196 121L197 122L196 121z"/>
<path style="fill:#abdfca; stroke:none;" d="M209 121L210 122L209 121z"/>
<path style="fill:#95d7bd; stroke:none;" d="M217 121L217 125L218 125L217 121M37 122L38 123L37 122z"/>
<path style="fill:#abdfca; stroke:none;" d="M51 122L52 123L51 122M78 122L79 123L78 122M92.6667 122.333L93.3333 122.667L92.6667 122.333M187 122L188 123L187 122z"/>
<path style="fill:#d5f0e4; stroke:none;" d="M197 122L198 123L197 122M211 122L212 123L211 122z"/>
<path style="fill:#95d7bd; stroke:none;" d="M226 122L226 126L227 126L226 122M27 123L27 127L28 127L27 123M36 123L36 127L37 127L36 123M50 123L51 124L50 123M79 123L80 124L79 123z"/>
<path style="fill:#abdfca; stroke:none;" d="M95 123L96 124L95 123M188 123L189 124L188 123M198 123L199 124L198 123M212 123L213 124L212 123M49 124L50 125L49 124M81 124L82 125L81 124M97.6667 124.333L98.3333 124.667L97.6667 124.333M189 124L190 125L189 124M199 124L200 125L199 124M213 124L214 125L213 124M48 125L49 126L48 125M82 125L83 126L82 125M100 125L101 126L100 125z"/>
<path style="fill:#95d7bd; stroke:none;" d="M101 125L102 126L101 125z"/>
<path style="fill:#abdfca; stroke:none;" d="M190 125L191 126L190 125M200 125L201 126L200 125M214 125L215 126L214 125M47 126L48 127L47 126M84 126L85 127L84 126M103.667 126.333L104.333 126.667L103.667 126.333M191 126L192 127L191 126M201 126L202 127L201 126z"/>
<path style="fill:#95d7bd; stroke:none;" d="M215 126L216 127L215 126z"/>
<path style="fill:#d5f0e4; stroke:none;" d="M216 126L217 127L216 126z"/>
<path style="fill:#abdfca; stroke:none;" d="M226 126L226 129L227 129L226 126M27.3333 127.667L27.6667 128.333L27.3333 127.667M46 127L47 128L46 127M85 127L86 128L85 127z"/>
<path style="fill:#d5f0e4; stroke:none;" d="M106 127L107 128L106 127z"/>
<path style="fill:#abdfca; stroke:none;" d="M107 127L108 128L107 127z"/>
<path style="fill:#95d7bd; stroke:none;" d="M108 127L109 128L108 127z"/>
<path style="fill:#abdfca; stroke:none;" d="M192 127L193 128L192 127M202 127L203 128L202 127M45 128L46 129L45 128M87 128L88 129L87 128M110.667 128.333L111.333 128.667L110.667 128.333z"/>
<path style="fill:#95d7bd; stroke:none;" d="M112 128L113 129L112 128z"/>
<path style="fill:#abdfca; stroke:none;" d="M193 128L194 129L193 128M203 128L204 129L203 128z"/>
<path style="fill:#d5f0e4; stroke:none;" d="M27 129L27 132L28 132L27 129z"/>
<path style="fill:#abdfca; stroke:none;" d="M44 129L45 130L44 129M89 129L90 130L89 129z"/>
<path style="fill:#d5f0e4; stroke:none;" d="M114 129L115 130L114 129z"/>
<path style="fill:#abdfca; stroke:none;" d="M115.667 129.333L116.333 129.667L115.667 129.333z"/>
<path style="fill:#95d7bd; stroke:none;" d="M117 129L118 130L117 129z"/>
<path style="fill:#abdfca; stroke:none;" d="M194 129L195 130L194 129z"/>
<path style="fill:#95d7bd; stroke:none;" d="M204 129L205 130L204 129z"/>
<path style="fill:#d5f0e4; stroke:none;" d="M226.333 129.667L226.667 130.333L226.333 129.667M37.3333 130.667L37.6667 131.333L37.3333 130.667M43 130L44 131L43 130z"/>
<path style="fill:#95d7bd; stroke:none;" d="M90 130L91 131L90 130z"/>
<path style="fill:#abdfca; stroke:none;" d="M91 130L92 131L91 130z"/>
<path style="fill:#d5f0e4; stroke:none;" d="M119 130L120 131L119 130z"/>
<path style="fill:#abdfca; stroke:none;" d="M120.667 130.333L121.333 130.667L120.667 130.333z"/>
<path style="fill:#95d7bd; stroke:none;" d="M122 130L123 131L122 130z"/>
<path style="fill:#abdfca; stroke:none;" d="M195 130L196 131L195 130z"/>
<path style="fill:#95d7bd; stroke:none;" d="M205 130L206 131L205 130z"/>
<path style="fill:#abdfca; stroke:none;" d="M92 131L93 132L92 131z"/>
<path style="fill:#d5f0e4; stroke:none;" d="M125 131L126 132L125 131z"/>
<path style="fill:#abdfca; stroke:none;" d="M126.667 131.333L127.333 131.667L126.667 131.333z"/>
<path style="fill:#95d7bd; stroke:none;" d="M128 131L129 132L128 131z"/>
<path style="fill:#abdfca; stroke:none;" d="M196 131L197 132L196 131z"/>
<path style="fill:#95d7bd; stroke:none;" d="M206 131L207 132L206 131M37.3333 132.667L37.6667 133.333L37.3333 132.667M42 132L43 133L42 132z"/>
<path style="fill:#abdfca; stroke:none;" d="M94 132L95 133L94 132z"/>
<path style="fill:#d5f0e4; stroke:none;" d="M131 132L132 133L131 132z"/>
<path style="fill:#abdfca; stroke:none;" d="M132.667 132.333L133.333 132.667L132.667 132.333z"/>
<path style="fill:#95d7bd; stroke:none;" d="M134 132L135 133L134 132z"/>
<path style="fill:#abdfca; stroke:none;" d="M197 132L198 133L197 132z"/>
<path style="fill:#95d7bd; stroke:none;" d="M207 132L208 133L207 132M28.3333 133.667L28.6667 134.333L28.3333 133.667z"/>
<path style="fill:#abdfca; stroke:none;" d="M41 133L42 134L41 133M96 133L97 134L96 133z"/>
<path style="fill:#d5f0e4; stroke:none;" d="M137 133L138 134L137 133z"/>
<path style="fill:#abdfca; stroke:none;" d="M138.667 133.333L139.333 133.667L138.667 133.333z"/>
<path style="fill:#95d7bd; stroke:none;" d="M140 133L141 134L140 133z"/>
<path style="fill:#abdfca; stroke:none;" d="M198 133L199 134L198 133z"/>
<path style="fill:#95d7bd; stroke:none;" d="M208 133L209 134L208 133M225 133L226 134L225 133z"/>
<path style="fill:#abdfca; stroke:none;" d="M40 134L41 135L40 134M98 134L99 135L98 134z"/>
<path style="fill:#d5f0e4; stroke:none;" d="M143 134L144 135L143 134z"/>
<path style="fill:#abdfca; stroke:none;" d="M144.667 134.333L145.333 134.667L144.667 134.333z"/>
<path style="fill:#95d7bd; stroke:none;" d="M146 134L147 135L146 134z"/>
<path style="fill:#abdfca; stroke:none;" d="M199 134L200 135L199 134z"/>
<path style="fill:#95d7bd; stroke:none;" d="M209 134L210 135L209 134z"/>
<path style="fill:#abdfca; stroke:none;" d="M225 134L225 137L226 137L225 134M28 135L29 136L28 135z"/>
<path style="fill:#d5f0e4; stroke:none;" d="M38 135L39 136L38 135z"/>
<path style="fill:#abdfca; stroke:none;" d="M39 135L40 136L39 135M100.667 135.333L101.333 135.667L100.667 135.333M149.667 135.333L150.333 135.667L149.667 135.333z"/>
<path style="fill:#95d7bd; stroke:none;" d="M151 135L152 136L151 135M200 135L201 136L200 135z"/>
<path style="fill:#abdfca; stroke:none;" d="M210 135L211 136L210 135z"/>
<path style="fill:#d5f0e4; stroke:none;" d="M28.3333 136.667L28.6667 137.333L28.3333 136.667z"/>
<path style="fill:#95d7bd; stroke:none;" d="M38 136L39 137L38 136z"/>
<path style="fill:#abdfca; stroke:none;" d="M102 136L103 137L102 136M153.667 136.333L154.333 136.667L153.667 136.333z"/>
<path style="fill:#95d7bd; stroke:none;" d="M201 136L202 137L201 136z"/>
<path style="fill:#abdfca; stroke:none;" d="M211 136L212 137L211 136M104 137L105 138L104 137M156.667 137.333L157.333 137.667L156.667 137.333z"/>
<path style="fill:#d5f0e4; stroke:none;" d="M203 137L204 138L203 137z"/>
<path style="fill:#abdfca; stroke:none;" d="M212 137L213 138L212 137z"/>
<path style="fill:#d5f0e4; stroke:none;" d="M225 137L226 138L225 137z"/>
<path style="fill:#abdfca; stroke:none;" d="M105 138L106 139L105 138M159 138L160 139L159 138z"/>
<path style="fill:#d5f0e4; stroke:none;" d="M204 138L205 139L204 138z"/>
<path style="fill:#abdfca; stroke:none;" d="M213 138L214 139L213 138z"/>
<path style="fill:#95d7bd; stroke:none;" d="M29.3333 139.667L29.6667 140.333L29.3333 139.667z"/>
<path style="fill:#abdfca; stroke:none;" d="M107 139L108 140L107 139M161 139L162 140L161 139M205 139L206 140L205 139M214 139L215 140L214 139M108 140L109 141L108 140M163 140L164 141L163 140M206 140L207 141L206 140z"/>
<path style="fill:#d5f0e4; stroke:none;" d="M214 140L215 141L214 140z"/>
<path style="fill:#abdfca; stroke:none;" d="M224.333 140.667L224.667 141.333L224.333 140.667z"/>
<path style="fill:#d5f0e4; stroke:none;" d="M29.3333 141.667L29.6667 142.333L29.3333 141.667M110 141L111 142L110 141z"/>
<path style="fill:#abdfca; stroke:none;" d="M165 141L166 142L165 141M207 141L208 142L207 141M214 141L215 142L214 141M111 142L112 143L111 142M167 142L168 143L167 142z"/>
<path style="fill:#95d7bd; stroke:none;" d="M208 142L209 143L208 142M214 142L215 143L214 142M30.3333 143.667L30.6667 144.333L30.3333 143.667z"/>
<path style="fill:#abdfca; stroke:none;" d="M112 143L113 144L112 143z"/>
<path style="fill:#d5f0e4; stroke:none;" d="M168 143L169 144L168 143z"/>
<path style="fill:#95d7bd; stroke:none;" d="M169 143L170 144L169 143z"/>
<path style="fill:#abdfca; stroke:none;" d="M210 143L211 144L210 143M113 144L114 145L113 144M170 144L171 145L170 144M211 144L212 145L211 144M213 144L212 146L214 146L213 144M223 144L224 145L223 144z"/>
<path style="fill:#d5f0e4; stroke:none;" d="M30 145L31 146L30 145z"/>
<path style="fill:#abdfca; stroke:none;" d="M114 145L115 146L114 145M171 145L172 146L171 145z"/>
<path style="fill:#d5f0e4; stroke:none;" d="M223 145L224 146L223 145z"/>
<path style="fill:#abdfca; stroke:none;" d="M115 146L116 147L115 146z"/>
<path style="fill:#95d7bd; stroke:none;" d="M173 146L174 147L173 146M31 147L32 148L31 147z"/>
<path style="fill:#abdfca; stroke:none;" d="M116 147L117 148L116 147M174 147L175 148L174 147M222.333 147.667L222.667 148.333L222.333 147.667z"/>
<path style="fill:#d5f0e4; stroke:none;" d="M31.3333 148.667L31.6667 149.333L31.3333 148.667M117 148L118 149L117 148z"/>
<path style="fill:#abdfca; stroke:none;" d="M175 148L176 149L175 148z"/>
<path style="fill:#95d7bd; stroke:none;" d="M117 149L118 150L117 149z"/>
<path style="fill:#abdfca; stroke:none;" d="M176 149L177 150L176 149z"/>
<path style="fill:#95d7bd; stroke:none;" d="M32.3333 150.667L32.6667 151.333L32.3333 150.667z"/>
<path style="fill:#abdfca; stroke:none;" d="M118 150L119 151L118 150M177 150L178 151L177 150M221.333 150.667L221.667 151.333L221.333 150.667z"/>
<path style="fill:#d5f0e4; stroke:none;" d="M119 151L120 152L119 151z"/>
<path style="fill:#abdfca; stroke:none;" d="M178 151L179 152L178 151z"/>
<path style="fill:#d5f0e4; stroke:none;" d="M32 152L33 153L32 152z"/>
<path style="fill:#95d7bd; stroke:none;" d="M119 152L120 153L119 152M179 152L180 153L179 152M33 153L34 154L33 153M180 153L181 154L180 153z"/>
<path style="fill:#abdfca; stroke:none;" d="M220.333 153.667L220.667 154.333L220.333 153.667z"/>
<path style="fill:#d5f0e4; stroke:none;" d="M33 154L34 155L33 154M120 154L121 155L120 154M180 154L181 155L180 154z"/>
<path style="fill:#95d7bd; stroke:none;" d="M120.333 155.667L120.667 156.333L120.333 155.667z"/>
<path style="fill:#abdfca; stroke:none;" d="M181 155L182 156L181 155z"/>
<path style="fill:#95d7bd; stroke:none;" d="M34 156L35 157L34 156M182 156L183 157L182 156z"/>
<path style="fill:#abdfca; stroke:none;" d="M219 156L220 157L219 156z"/>
<path style="fill:#d5f0e4; stroke:none;" d="M34 157L35 158L34 157z"/>
<path style="fill:#95d7bd; stroke:none;" d="M35 158L36 159L35 158z"/>
<path style="fill:#abdfca; stroke:none;" d="M183 158L184 159L183 158M218.333 158.667L218.667 159.333L218.333 158.667z"/>
<path style="fill:#d5f0e4; stroke:none;" d="M35 159L36 160L35 159z"/>
<path style="fill:#95d7bd; stroke:none;" d="M184 159L185 160L184 159z"/>
<path style="fill:#d5f0e4; stroke:none;" d="M184 160L185 161L184 160z"/>
<path style="fill:#abdfca; stroke:none;" d="M36 161L37 162L36 161z"/>
<path style="fill:#95d7bd; stroke:none;" d="M120 161L121 162L120 161M185 161L186 162L185 161z"/>
<path style="fill:#abdfca; stroke:none;" d="M217 161L218 162L217 161M120.333 162.667L120.667 163.333L120.333 162.667z"/>
<path style="fill:#d5f0e4; stroke:none;" d="M185 162L186 163L185 162z"/>
<path style="fill:#abdfca; stroke:none;" d="M37 163L38 164L37 163M216 163L217 164L216 163z"/>
<path style="fill:#95d7bd; stroke:none;" d="M186 164L187 165L186 164z"/>
<path style="fill:#abdfca; stroke:none;" d="M38 165L39 166L38 165M119 165L120 166L119 165z"/>
<path style="fill:#d5f0e4; stroke:none;" d="M186 165L187 166L186 165z"/>
<path style="fill:#abdfca; stroke:none;" d="M215 165L216 166L215 165z"/>
<path style="fill:#95d7bd; stroke:none;" d="M39 166L40 167L39 166z"/>
<path style="fill:#d5f0e4; stroke:none;" d="M39 167L40 168L39 167z"/>
<path style="fill:#abdfca; stroke:none;" d="M118 167L119 168L118 167z"/>
<path style="fill:#95d7bd; stroke:none;" d="M187 167L188 168L187 167z"/>
<path style="fill:#abdfca; stroke:none;" d="M214 167L215 168L214 167z"/>
<path style="fill:#95d7bd; stroke:none;" d="M40 168L41 169L40 168z"/>
<path style="fill:#abdfca; stroke:none;" d="M187 168L188 169L187 168M213 168L214 169L213 168z"/>
<path style="fill:#d5f0e4; stroke:none;" d="M40 169L41 170L40 169z"/>
<path style="fill:#abdfca; stroke:none;" d="M117 169L118 170L117 169z"/>
<path style="fill:#d5f0e4; stroke:none;" d="M187.333 169.667L187.667 170.333L187.333 169.667M213 169L214 170L213 169z"/>
<path style="fill:#abdfca; stroke:none;" d="M41 170L42 171L41 170M116 170L117 171L116 170M212 170L213 171L212 170M115 171L116 172L115 171z"/>
<path style="fill:#d5f0e4; stroke:none;" d="M42 172L43 173L42 172z"/>
<path style="fill:#abdfca; stroke:none;" d="M114 172L115 173L114 172z"/>
<path style="fill:#95d7bd; stroke:none;" d="M188 172L188 178L189 178L188 172z"/>
<path style="fill:#abdfca; stroke:none;" d="M211 172L212 173L211 172z"/>
<path style="fill:#95d7bd; stroke:none;" d="M43 173L44 174L43 173z"/>
<path style="fill:#abdfca; stroke:none;" d="M113 173L114 174L113 173M210 173L211 174L210 173z"/>
<path style="fill:#d5f0e4; stroke:none;" d="M43 174L44 175L43 174z"/>
<path style="fill:#95d7bd; stroke:none;" d="M111 174L112 175L111 174z"/>
<path style="fill:#d5f0e4; stroke:none;" d="M112 174L113 175L112 174z"/>
<path style="fill:#abdfca; stroke:none;" d="M44 175L45 176L44 175z"/>
<path style="fill:#95d7bd; stroke:none;" d="M109 175L110 176L109 175z"/>
<path style="fill:#d5f0e4; stroke:none;" d="M110 175L111 176L110 175z"/>
<path style="fill:#abdfca; stroke:none;" d="M209 175L210 176L209 175z"/>
<path style="fill:#95d7bd; stroke:none;" d="M45 176L46 177L45 176M107 176L108 177L107 176z"/>
<path style="fill:#d5f0e4; stroke:none;" d="M108 176L109 177L108 176z"/>
<path style="fill:#abdfca; stroke:none;" d="M208 176L209 177L208 176z"/>
<path style="fill:#95d7bd; stroke:none;" d="M46 177L47 178L46 177M104 177L105 178L104 177z"/>
<path style="fill:#d5f0e4; stroke:none;" d="M105.667 177.333L106.333 177.667L105.667 177.333M46 178L47 179L46 178z"/>
<path style="fill:#95d7bd; stroke:none;" d="M100.667 178.333L101.333 178.667L100.667 178.333z"/>
<path style="fill:#d5f0e4; stroke:none;" d="M102.667 178.333L103.333 178.667L102.667 178.333M207 178L208 179L207 178z"/>
<path style="fill:#abdfca; stroke:none;" d="M47 179L48 180L47 179z"/>
<path style="fill:#95d7bd; stroke:none;" d="M94.6667 179.333L95.3333 179.667L94.6667 179.333z"/>
<path style="fill:#abdfca; stroke:none;" d="M96 179L97 180L96 179z"/>
<path style="fill:#d5f0e4; stroke:none;" d="M97.6667 179.333L98.3333 179.667L97.6667 179.333z"/>
<path style="fill:#abdfca; stroke:none;" d="M206 179L207 180L206 179M48 180L49 181L48 180z"/>
<path style="fill:#95d7bd; stroke:none;" d="M78 180L78 181L84 181L78 180z"/>
<path style="fill:#abdfca; stroke:none;" d="M84 180L84 181L88 181L84 180z"/>
<path style="fill:#d5f0e4; stroke:none;" d="M88 180L88 181L92 181L88 180z"/>
<path style="fill:#abdfca; stroke:none;" d="M205 180L206 181L205 180z"/>
<path style="fill:#95d7bd; stroke:none;" d="M49 181L50 182L49 181M67.6667 181.333L68.3333 181.667L67.6667 181.333z"/>
<path style="fill:#abdfca; stroke:none;" d="M69 181L70 182L69 181z"/>
<path style="fill:#d5f0e4; stroke:none;" d="M70 181L70 182L74 182L70 181M187 181L188 182L187 181z"/>
<path style="fill:#95d7bd; stroke:none;" d="M204 181L205 182L204 181M62 182L64 184L62 182z"/>
<path style="fill:#d5f0e4; stroke:none;" d="M63.6667 182.333L64.3333 182.667L63.6667 182.333z"/>
<path style="fill:#abdfca; stroke:none;" d="M187.333 182.667L187.667 183.333L187.333 182.667z"/>
<path style="fill:#d5f0e4; stroke:none;" d="M50 183L51 184L50 183M203 183L204 184L203 183z"/>
<path style="fill:#abdfca; stroke:none;" d="M51 184L52 185L51 184z"/>
<path style="fill:#95d7bd; stroke:none;" d="M64 184L65 185L64 184z"/>
<path style="fill:#abdfca; stroke:none;" d="M202 184L203 185L202 184M52 185L53 186L52 185z"/>
<path style="fill:#95d7bd; stroke:none;" d="M65 185L66 186L65 185z"/>
<path style="fill:#d5f0e4; stroke:none;" d="M66 185L67 186L66 185M186 185L187 186L186 185z"/>
<path style="fill:#abdfca; stroke:none;" d="M201 185L202 186L201 185M53 186L54 187L53 186z"/>
<path style="fill:#d5f0e4; stroke:none;" d="M67 186L68 187L67 186z"/>
<path style="fill:#abdfca; stroke:none;" d="M186 186L187 187L186 186M200 186L201 187L200 186M54 187L55 188L54 187z"/>
<path style="fill:#d5f0e4; stroke:none;" d="M68 187L69 188L68 187M185 187L186 188L185 187z"/>
<path style="fill:#abdfca; stroke:none;" d="M199 187L200 188L199 187M55 188L56 189L55 188M69 188L70 189L69 188M184 188L185 189L184 188M198 188L199 189L198 188M56 189L57 190L56 189M70 189L71 190L70 189M183 189L184 190L183 189M197 189L198 190L197 189M57 190L58 191L57 190z"/>
<path style="fill:#95d7bd; stroke:none;" d="M71 190L72 191L71 190z"/>
<path style="fill:#d5f0e4; stroke:none;" d="M181 190L182 191L181 190z"/>
<path style="fill:#95d7bd; stroke:none;" d="M182 190L183 191L182 190z"/>
<path style="fill:#abdfca; stroke:none;" d="M196 190L197 191L196 190M58 191L59 192L58 191M73 191L74 192L73 191z"/>
<path style="fill:#d5f0e4; stroke:none;" d="M180 191L181 192L180 191z"/>
<path style="fill:#abdfca; stroke:none;" d="M195 191L196 192L195 191M59 192L60 193L59 192M74 192L75 193L74 192M179 192L180 193L179 192M194 192L195 193L194 192M60 193L61 194L60 193z"/>
<path style="fill:#95d7bd; stroke:none;" d="M75 193L76 194L75 193z"/>
<path style="fill:#d5f0e4; stroke:none;" d="M177 193L178 194L177 193z"/>
<path style="fill:#95d7bd; stroke:none;" d="M178 193L179 194L178 193z"/>
<path style="fill:#abdfca; stroke:none;" d="M193 193L194 194L193 193M61 194L62 195L61 194M77 194L78 195L77 194M176 194L177 195L176 194z"/>
<path style="fill:#d5f0e4; stroke:none;" d="M192 194L193 195L192 194M62 195L63 196L62 195z"/>
<path style="fill:#abdfca; stroke:none;" d="M79 195L80 196L79 195z"/>
<path style="fill:#d5f0e4; stroke:none;" d="M174 195L175 196L174 195z"/>
<path style="fill:#95d7bd; stroke:none;" d="M175 195L176 196L175 195M190 195L191 196L190 195z"/>
<path style="fill:#d5f0e4; stroke:none;" d="M191 195L192 196L191 195z"/>
<path style="fill:#abdfca; stroke:none;" d="M64 196L65 197L64 196M80 196L81 197L80 196M173 196L174 197L173 196z"/>
<path style="fill:#95d7bd; stroke:none;" d="M189 196L190 197L189 196z"/>
<path style="fill:#abdfca; stroke:none;" d="M65 197L66 198L65 197M82 197L83 198L82 197M171 197L172 198L171 197M188 197L189 198L188 197M66 198L67 199L66 198M83.6667 198.333L84.3333 198.667L83.6667 198.333z"/>
<path style="fill:#d5f0e4; stroke:none;" d="M169 198L170 199L169 198z"/>
<path style="fill:#95d7bd; stroke:none;" d="M170 198L171 199L170 198z"/>
<path style="fill:#d5f0e4; stroke:none;" d="M187 198L188 199L187 198M67 199L68 200L67 199z"/>
<path style="fill:#abdfca; stroke:none;" d="M85.6667 199.333L86.3333 199.667L85.6667 199.333z"/>
<path style="fill:#d5f0e4; stroke:none;" d="M167 199L168 200L167 199z"/>
<path style="fill:#95d7bd; stroke:none;" d="M168 199L169 200L168 199M185 199L186 200L185 199z"/>
<path style="fill:#d5f0e4; stroke:none;" d="M186 199L187 200L186 199z"/>
<path style="fill:#abdfca; stroke:none;" d="M69 200L70 201L69 200M87.6667 200.333L88.3333 200.667L87.6667 200.333z"/>
<path style="fill:#d5f0e4; stroke:none;" d="M165 200L166 201L165 200z"/>
<path style="fill:#95d7bd; stroke:none;" d="M166 200L167 201L166 200z"/>
<path style="fill:#abdfca; stroke:none;" d="M184 200L185 201L184 200M70 201L71 202L70 201M89.6667 201.333L90.3333 201.667L89.6667 201.333z"/>
<path style="fill:#d5f0e4; stroke:none;" d="M163 201L164 202L163 201z"/>
<path style="fill:#95d7bd; stroke:none;" d="M164 201L165 202L164 201z"/>
<path style="fill:#d5f0e4; stroke:none;" d="M183 201L184 202L183 201z"/>
<path style="fill:#abdfca; stroke:none;" d="M72 202L73 203L72 202M92 202L93 203L92 202M161 202L162 203L161 202z"/>
<path style="fill:#95d7bd; stroke:none;" d="M181 202L182 203L181 202z"/>
<path style="fill:#abdfca; stroke:none;" d="M73 203L74 204L73 203z"/>
<path style="fill:#95d7bd; stroke:none;" d="M74 203L75 204L74 203z"/>
<path style="fill:#abdfca; stroke:none;" d="M94.6667 203.333L95.3333 203.667L94.6667 203.333z"/>
<path style="fill:#d5f0e4; stroke:none;" d="M158 203L159 204L158 203z"/>
<path style="fill:#95d7bd; stroke:none;" d="M159 203L160 204L159 203M179 203L180 204L179 203z"/>
<path style="fill:#d5f0e4; stroke:none;" d="M180 203L181 204L180 203z"/>
<path style="fill:#abdfca; stroke:none;" d="M75 204L76 205L75 204M97 204L98 205L97 204z"/>
<path style="fill:#d5f0e4; stroke:none;" d="M98 204L99 205L98 204M155 204L156 205L155 204z"/>
<path style="fill:#95d7bd; stroke:none;" d="M156.667 204.333L157.333 204.667L156.667 204.333z"/>
<path style="fill:#abdfca; stroke:none;" d="M178 204L179 205L178 204M77 205L78 206L77 205z"/>
<path style="fill:#95d7bd; stroke:none;" d="M99 205L100 206L99 205z"/>
<path style="fill:#abdfca; stroke:none;" d="M100 205L101 206L100 205z"/>
<path style="fill:#d5f0e4; stroke:none;" d="M101 205L102 206L101 205M152 205L153 206L152 205z"/>
<path style="fill:#95d7bd; stroke:none;" d="M153.667 205.333L154.333 205.667L153.667 205.333M176 205L177 206L176 205z"/>
<path style="fill:#d5f0e4; stroke:none;" d="M177 205L178 206L177 205z"/>
<path style="fill:#abdfca; stroke:none;" d="M78 206L79 207L78 206z"/>
<path style="fill:#95d7bd; stroke:none;" d="M103 206L104 207L103 206z"/>
<path style="fill:#abdfca; stroke:none;" d="M104 206L105 207L104 206z"/>
<path style="fill:#d5f0e4; stroke:none;" d="M105 206L106 207L105 206M148.667 206.333L149.333 206.667L148.667 206.333z"/>
<path style="fill:#95d7bd; stroke:none;" d="M150.667 206.333L151.333 206.667L150.667 206.333M174 206L175 207L174 206z"/>
<path style="fill:#d5f0e4; stroke:none;" d="M175 206L176 207L175 206z"/>
<path style="fill:#abdfca; stroke:none;" d="M80 207L81 208L80 207M107.667 207.333L108.333 207.667L107.667 207.333z"/>
<path style="fill:#d5f0e4; stroke:none;" d="M109 207L110 208L109 207M144 207L145 208L144 207z"/>
<path style="fill:#abdfca; stroke:none;" d="M145 207L146 208L145 207z"/>
<path style="fill:#95d7bd; stroke:none;" d="M146 207L147 208L146 207M172 207L173 208L172 207z"/>
<path style="fill:#d5f0e4; stroke:none;" d="M173 207L174 208L173 207z"/>
<path style="fill:#abdfca; stroke:none;" d="M82 208L83 209L82 208z"/>
<path style="fill:#95d7bd; stroke:none;" d="M112 208L113 209L112 208z"/>
<path style="fill:#abdfca; stroke:none;" d="M113.667 208.333L114.333 208.667L113.667 208.333z"/>
<path style="fill:#d5f0e4; stroke:none;" d="M115 208L116 209L115 208M137.667 208.333L138.333 208.667L137.667 208.333z"/>
<path style="fill:#abdfca; stroke:none;" d="M139 208L140 209L139 208z"/>
<path style="fill:#95d7bd; stroke:none;" d="M140 208L140 209L143 209L140 208M170 208L171 209L170 208z"/>
<path style="fill:#d5f0e4; stroke:none;" d="M171 208L172 209L171 208z"/>
<path style="fill:#abdfca; stroke:none;" d="M84.6667 209.333L85.3333 209.667L84.6667 209.333z"/>
<path style="fill:#95d7bd; stroke:none;" d="M119 209L119 210L124 210L119 209z"/>
<path style="fill:#abdfca; stroke:none;" d="M124 209L124 210L130 210L124 209z"/>
<path style="fill:#95d7bd; stroke:none;" d="M130 209L130 210L136 210L130 209M168 209L169 210L168 209z"/>
<path style="fill:#d5f0e4; stroke:none;" d="M169 209L170 210L169 209z"/>
<path style="fill:#abdfca; stroke:none;" d="M86.6667 210.333L87.3333 210.667L86.6667 210.333z"/>
<path style="fill:#95d7bd; stroke:none;" d="M166 210L167 211L166 210z"/>
<path style="fill:#d5f0e4; stroke:none;" d="M167 210L168 211L167 210z"/>
<path style="fill:#abdfca; stroke:none;" d="M89 211L90 212L89 211z"/>
<path style="fill:#95d7bd; stroke:none;" d="M164 211L165 212L164 211z"/>
<path style="fill:#d5f0e4; stroke:none;" d="M165 211L166 212L165 211z"/>
<path style="fill:#abdfca; stroke:none;" d="M91.6667 212.333L92.3333 212.667L91.6667 212.333z"/>
<path style="fill:#95d7bd; stroke:none;" d="M161 212L162 213L161 212z"/>
<path style="fill:#d5f0e4; stroke:none;" d="M162 212L163 213L162 212z"/>
<path style="fill:#abdfca; stroke:none;" d="M94.6667 213.333L95.3333 213.667L94.6667 213.333z"/>
<path style="fill:#95d7bd; stroke:none;" d="M158.667 213.333L159.333 213.667L158.667 213.333z"/>
<path style="fill:#d5f0e4; stroke:none;" d="M160 213L161 214L160 213z"/>
<path style="fill:#abdfca; stroke:none;" d="M97.6667 214.333L98.3333 214.667L97.6667 214.333z"/>
<path style="fill:#95d7bd; stroke:none;" d="M155 214L156 215L155 214z"/>
<path style="fill:#d5f0e4; stroke:none;" d="M156.667 214.333L157.333 214.667L156.667 214.333z"/>
<path style="fill:#abdfca; stroke:none;" d="M100.667 215.333L101.333 215.667L100.667 215.333z"/>
<path style="fill:#95d7bd; stroke:none;" d="M152 215L153 216L152 215z"/>
<path style="fill:#d5f0e4; stroke:none;" d="M153 215L154 216L153 215z"/>
<path style="fill:#abdfca; stroke:none;" d="M104.667 216.333L105.333 216.667L104.667 216.333z"/>
<path style="fill:#95d7bd; stroke:none;" d="M106 216L107 217L106 216M147.667 216.333L148.333 216.667L147.667 216.333z"/>
<path style="fill:#d5f0e4; stroke:none;" d="M149.667 216.333L150.333 216.667L149.667 216.333M109 217L110 218L109 217z"/>
<path style="fill:#abdfca; stroke:none;" d="M110.667 217.333L111.333 217.667L110.667 217.333z"/>
<path style="fill:#95d7bd; stroke:none;" d="M112 217L113 218L112 217M141 217L141 218L144 218L141 217z"/>
<path style="fill:#d5f0e4; stroke:none;" d="M144.667 217.333L145.333 217.667L144.667 217.333M114 218L114 219L117 219L114 218z"/>
<path style="fill:#abdfca; stroke:none;" d="M117 218L117 219L121 219L117 218z"/>
<path style="fill:#95d7bd; stroke:none;" d="M121 218L121 219L125 219L121 218M130 218L130 219L136 219L130 218z"/>
<path style="fill:#abdfca; stroke:none;" d="M136 218L137 219L136 218z"/>
<path style="fill:#d5f0e4; stroke:none;" d="M137 218L137 219L140 219L137 218z"/>
</svg>
