<svg width="96" height="26" viewBox="0 0 96 26" fill="none" xmlns="http://www.w3.org/2000/svg">
<mask id="mask0_56_757" style="mask-type:alpha" maskUnits="userSpaceOnUse" x="0" y="0" width="26" height="25">
<path d="M13.3241 24.7917C20.138 24.7917 25.6617 19.2419 25.6617 12.3958C25.6617 5.54981 20.138 0 13.3241 0C6.51028 0 0.986572 5.54981 0.986572 12.3958C0.986572 19.2419 6.51028 24.7917 13.3241 24.7917Z" fill="black"/>
</mask>
<g mask="url(#mask0_56_757)">
<path d="M25.6623 6.10352e-05H13.3247V12.3959H25.6623V6.10352e-05Z" fill="#3751FF"/>
</g>
<path fill-rule="evenodd" clip-rule="evenodd" d="M12.3377 0.991699C12.3377 0.991699 12.3376 0.991699 12.3377 0.991699C5.52383 0.991699 0 6.54148 0 13.3875C0 20.2336 5.52371 25.7834 12.3375 25.7834C19.1515 25.7834 24.6751 20.2336 24.6751 13.3875H12.3377V0.991699Z" fill="#212429"/>
<path d="M47.4816 0.624004V3.29516H40.6554V25.7834H37.3861V3.29516H30.524V0.624004H47.4816ZM50.2845 13.1857C50.2845 10.7311 50.8354 8.52918 51.9372 6.57996C53.0389 4.60667 54.5359 3.06655 56.428 1.95958C58.3441 0.852617 60.4638 0.299133 62.7871 0.299133C65.5176 0.299133 67.9007 0.960907 69.9366 2.28445C71.9724 3.608 73.4574 5.48502 74.3915 7.91553H70.4755C69.7809 6.39947 68.7749 5.23235 67.4576 4.41416C66.1642 3.59596 64.6074 3.18687 62.7871 3.18687C61.0387 3.18687 59.4699 3.59596 58.0807 4.41416C56.6915 5.23235 55.6017 6.39947 54.8113 7.91553C54.0209 9.40753 53.6257 11.1642 53.6257 13.1857C53.6257 15.183 54.0209 16.9397 54.8113 18.4558C55.6017 19.9478 56.6915 21.1029 58.0807 21.9211C59.4699 22.7392 61.0387 23.1483 62.7871 23.1483C64.6074 23.1483 66.1642 22.7513 67.4576 21.9571C68.7749 21.139 69.7809 19.9718 70.4755 18.4558H74.3915C73.4574 20.8622 71.9724 22.7272 69.9366 24.0508C67.9007 25.3502 65.5176 26 62.7871 26C60.4638 26 58.3441 25.4585 56.428 24.3756C54.5359 23.2687 53.0389 21.7406 51.9372 19.7913C50.8354 17.8421 50.2845 15.6402 50.2845 13.1857ZM96 7.98773C96 10.0813 95.2815 11.826 93.8444 13.2218C92.4313 14.5934 90.2637 15.2793 87.3416 15.2793H82.5274V25.7834H79.2581V0.624004H87.3416C90.1679 0.624004 92.3115 1.30984 93.7725 2.68152C95.2575 4.05319 96 5.82193 96 7.98773ZM87.3416 12.572C89.1619 12.572 90.5032 12.1749 91.3654 11.3808C92.2277 10.5867 92.6588 9.45566 92.6588 7.98773C92.6588 4.88341 90.8864 3.33126 87.3416 3.33126H82.5274V12.572H87.3416Z" fill="#212429"/>
</svg>
